M48
;Layer_Color=9474304
;FILE_FORMAT=4:4
METRIC,LZ
;TYPE=PLATED
T01F00S00C0.3000
T02F00S00C0.3500
T03F00S00C0.6000
T04F00S00C0.9000
T05F00S00C1.0000
T06F00S00C1.1000
T07F00S00C1.2192
T08F00S00C3.5000
%
T01
X00026Y00096
X00061
X000785Y00061
X00096Y00026
X00131Y00096
X001135Y00131
X000435
X001485
X001835
X002185
X00224Y000675
X00196Y000425
X00166Y00096
X00341
X003585Y00061
X003235
X00411Y00096
X00446
X00481
X00516
X005335Y00131
X004985
X004635
X004285
X005685
X00551Y00096
Y00026
X006735Y00061
X00691Y00096
X00726
X00761
X00796
X00831
X008485Y00131
X008135
X007785
X007435
X007085
X007785Y00061
X008135
X008485
X00831Y00026
X00796
Y00166
X00761
X00726
X00691
X007085Y00201
X007435
X007785
X008135
X008485
X00831Y00236
X00796
X00761
X00726
X00691
X007085Y00271
X007435
X007785
X008135
X008485
X00831Y00306
X00796
X00761
X00726
X00691
X00621
Y00236
X00551
X005685Y00201
X00551Y00166
X005685Y00271
X00551Y00306
X005685Y00411
X00551Y00446
X00586
X00621
X006035Y00481
X005685
X007085
X007435
X00761Y00446
X007435Y00411
X00761Y00376
X00691
X006735Y00411
X008485Y00481
Y00341
X00831Y00166
X00516
X00481
X00446
X00411
X00376
X00341
X00306
X00271
X002885Y00201
X002925Y00223
X00304758Y00222926
X00317257Y00227729
X00329235Y00227008
X003415Y002255
X003605Y002285
X00372758Y00228426
X003855Y00223
X00396695Y00227008
X00408149Y00223428
X00419758Y00220392
X00431429Y00223184
X00440393Y00231161
X00444479Y00242444
X0044277Y00254322
X00435664Y00263992
X00424843Y00269178
X004145Y002705
X00405513Y00264896
X00393665Y00262992
X00381668Y00262695
X00369744Y00261353
X003585Y00271
X0034832Y00262837
X00335626Y00262992
X00323629Y00262737
X00310758Y00265426
X002985Y002655
X002885Y00271
X0027757Y0026258
X00265869Y0026524
X0025579Y00271752
X00254291Y00230252
X00265917Y00227277
X00277916Y00227384
X00244152Y0023667
X00236509Y00245921
X00225819Y0025503
X00219209Y00265045
X002105Y00273
X002065Y002865
X00212Y00298
X00201Y00306
X00201Y003265
Y00338
Y0035
Y003635
X00201Y00376
X00202Y00394
X00212809Y0040422
X00218452Y0041481
X00226044Y00424103
X00235846Y00431025
X00245Y004355
X00255177Y00435337
X002635Y004335
X002725Y004365
X00271Y00446
X00288514Y00445986
X00297943Y00453409
X00309597Y0045627
X00332847Y0045002
X00343643Y00455259
X00354Y00457
X0035068Y0041687
X00339358Y00420845
X00327969Y00419033
X00315Y004185
X00301338Y00408821
X00291939Y00401361
X00280019Y00399983
X00261953Y00401437
X00250532Y00397754
X00245061Y00387074
X00236Y00446
X00201
X002185Y00481
X00236Y00516
X00341
X003235Y00481
X003935
X00392298Y00446716
X00392753Y00434725
X00392588Y00422726
X003935Y00411
X004285
X004635
X004985
X005335
X00516Y00446
X004985Y00481
X004635
X00446Y00516
X00481
X00446Y00446
X00411
Y00306
X00446
X00481
X00516
X005335Y00271
X004985
X004635
X00481Y00236
X00516
X005335Y00201
X004985
X004635
X004285
X003935
X003585
X003235
X002535
X001835
X001485
X00166Y00166
Y00236
X00201
X001835Y00271
Y00341
X001485
X00166Y00376
X001485Y00411
Y00481
X00306Y00376
X00341
Y00306
X00268Y00336
X000785Y00341
X000435
X00026Y00376
X000435Y00411
X000785
X001135
X00096Y00376
Y00306
X00061
X00026
X000435Y00271
X000785
X00026Y00236
X000435Y00201
X00026Y00166
X00131
X00096Y00446
X00061
X00026
X000435Y00481
X000785
X001135
X00096Y00516
X00131
X00061
X00026
X000785Y00551
X001135
X00096Y00586
X00131
X001135Y00621
X000785
X000435
X001485
X001835
X002185
X002535
X002885
X003235
X003585
X003935
X004285
X00376Y00586
X00341
X00306
X003235Y00551
X002885
X002535
X00551Y00586
X00621
X00656
X00726
X00761
X007785Y00551
X008135
X008485
T02
X0029515Y002325
X0030315
Y002575
X0029515
X002525Y003265
Y003345
Y003425
Y003505
X00246Y003465
Y003385
Y003305
X002395Y003265
Y003345
Y003425
Y003505
X00233Y003465
Y003385
Y003305
X002265Y003265
Y003345
Y003425
Y003505
X0022Y003465
Y003385
Y003305
X002135Y003265
Y003345
Y003425
Y003505
T03
X00186Y000195
X00581Y00087
Y00111
X00638Y00215
X00659
X00677Y003935
X00612Y00391
Y00409
X008175Y003615
X00818Y0033
X00534Y00511
X00499Y00524
X00304Y00529
Y0049
X0041Y00576
X006Y00583
X00636
T04
X002555Y00057
T05
X00353Y000385
X003784
X004038
X004292
X0048
X005054
X005308
T06
X0042Y00245
T07
X0005425Y002298
X0011775
Y003822
X0005425
T08
X00035Y00035
X00725
Y0052
X00035Y00575
M30
