G04*
G04 #@! TF.GenerationSoftware,Altium Limited,Altium Designer,26.2.0 (7)*
G04*
G04 Layer_Physical_Order=1*
G04 Layer_Color=255*
%FSLAX44Y44*%
%MOMM*%
G71*
G04*
G04 #@! TF.SameCoordinates,3000B54D-F0EF-4365-8219-05E713EDAB24*
G04*
G04*
G04 #@! TF.FilePolarity,Positive*
G04*
G01*
G75*
%ADD13C,0.4000*%
%ADD20R,1.7500X0.9900*%
%ADD21R,0.9900X0.6100*%
G04:AMPARAMS|DCode=22|XSize=1.55mm|YSize=0.6mm|CornerRadius=0.015mm|HoleSize=0mm|Usage=FLASHONLY|Rotation=270.000|XOffset=0mm|YOffset=0mm|HoleType=Round|Shape=RoundedRectangle|*
%AMROUNDEDRECTD22*
21,1,1.5500,0.5700,0,0,270.0*
21,1,1.5200,0.6000,0,0,270.0*
1,1,0.0300,-0.2850,-0.7600*
1,1,0.0300,-0.2850,0.7600*
1,1,0.0300,0.2850,0.7600*
1,1,0.0300,0.2850,-0.7600*
%
%ADD22ROUNDEDRECTD22*%
%ADD23R,0.7000X0.9500*%
%ADD24R,2.0000X3.0000*%
%ADD25R,1.1000X0.6000*%
%ADD26R,1.9500X2.0300*%
%ADD27R,2.0300X1.9500*%
%ADD28R,0.6000X1.1000*%
%ADD29R,1.2954X0.9144*%
%ADD30R,1.2954X0.5334*%
%ADD31R,1.3462X1.2696*%
%ADD32R,1.4053X2.3000*%
%ADD33R,0.6000X0.6000*%
%ADD34R,0.9500X0.7000*%
%ADD35R,3.4300X1.2700*%
%ADD36R,0.9000X0.6000*%
%ADD37R,0.8500X0.8500*%
%ADD38R,0.9000X0.7000*%
%ADD39R,1.5000X1.0000*%
%ADD40R,1.5000X1.6800*%
%ADD41R,0.9398X1.7018*%
%ADD42R,0.6000X0.6000*%
%ADD43R,1.6800X1.5000*%
%ADD44R,1.9000X5.3000*%
%ADD45R,1.4986X3.6068*%
%ADD46R,2.6000X1.5000*%
%ADD47R,6.6040X7.3152*%
%ADD48R,0.8500X0.8500*%
%ADD49R,0.6000X0.9000*%
%ADD50R,0.6000X0.7493*%
%ADD51R,1.0000X1.2500*%
G04:AMPARAMS|DCode=52|XSize=0.7mm|YSize=0.95mm|CornerRadius=0mm|HoleSize=0mm|Usage=FLASHONLY|Rotation=315.000|XOffset=0mm|YOffset=0mm|HoleType=Round|Shape=Rectangle|*
%AMROTATEDRECTD52*
4,1,4,-0.5834,-0.0884,0.0884,0.5834,0.5834,0.0884,-0.0884,-0.5834,-0.5834,-0.0884,0.0*
%
%ADD52ROTATEDRECTD52*%

%ADD88C,1.1550*%
%ADD90C,1.5000*%
%ADD93R,1.5000X1.5000*%
%ADD95C,1.7800*%
%ADD102R,4.9000X3.1000*%
%ADD103C,0.6000*%
%ADD104C,1.0000*%
%ADD105C,0.8000*%
%ADD106R,1.8000X1.5000*%
%ADD107C,0.5000*%
%ADD108C,1.8288*%
%ADD109R,1.8288X1.8288*%
%ADD110C,2.5000*%
%ADD111C,0.8000*%
%ADD112C,6.5000*%
%ADD113C,1.3000*%
%ADD114C,0.7000*%
%ADD115C,1.2000*%
G36*
X860000Y0D02*
X0D01*
Y650000D01*
X860000D01*
Y0D01*
D02*
G37*
%LPC*%
G36*
X850020Y639100D02*
X773980D01*
Y624078D01*
X459500D01*
X457150Y623768D01*
X454961Y622861D01*
X453081Y621419D01*
X434581Y602919D01*
X433139Y601039D01*
X432398Y599250D01*
X430000D01*
Y576750D01*
X449914D01*
Y569150D01*
X445050D01*
Y538850D01*
X626350D01*
Y520650D01*
Y518060D01*
X542496D01*
X540754Y519802D01*
X538246Y521250D01*
X535448Y522000D01*
X532552D01*
X529754Y521250D01*
X527246Y519802D01*
X525198Y517754D01*
X523750Y515246D01*
X523227Y513294D01*
X520691Y512294D01*
X510000Y522985D01*
Y525448D01*
X509250Y528246D01*
X507802Y530754D01*
X505754Y532802D01*
X503246Y534250D01*
X500448Y535000D01*
X497552D01*
X494754Y534250D01*
X492246Y532802D01*
X490198Y530754D01*
X488750Y528246D01*
X488000Y525448D01*
Y522552D01*
X488750Y519754D01*
X490198Y517246D01*
X492246Y515198D01*
X494754Y513750D01*
X497552Y513000D01*
X500015D01*
X551058Y461958D01*
X552520Y460836D01*
X554223Y460130D01*
X556050Y459890D01*
X626350D01*
Y444450D01*
Y440860D01*
X492124D01*
X398060Y534925D01*
Y557000D01*
X397820Y558827D01*
X397114Y560530D01*
X395993Y561992D01*
X385992Y571992D01*
X384530Y573115D01*
X382827Y573820D01*
X381000Y574060D01*
X293500D01*
Y575500D01*
X276000D01*
X274500Y575500D01*
X273500Y577586D01*
Y585000D01*
X254500D01*
Y584569D01*
X242500D01*
Y586000D01*
X211500D01*
Y583069D01*
X201500D01*
Y585000D01*
X176500D01*
Y584099D01*
X162450D01*
X161475Y583905D01*
X160648Y583352D01*
X160095Y582525D01*
X159901Y581550D01*
Y574940D01*
X159947Y574707D01*
X159945Y574470D01*
X160043Y574225D01*
X160095Y573965D01*
X160127Y573917D01*
X160294Y573370D01*
X160144Y572127D01*
X159952Y571461D01*
X159717Y570897D01*
X159701Y570872D01*
X158921Y570422D01*
X157078Y568579D01*
X155775Y566321D01*
X155100Y563803D01*
Y561837D01*
X154068Y560652D01*
X152832Y560000D01*
X128500D01*
Y540000D01*
X153500D01*
Y540031D01*
X163079D01*
X163821Y539462D01*
X165767Y538656D01*
X167855Y538381D01*
X207208D01*
X210500Y535089D01*
Y529000D01*
X241500D01*
Y530431D01*
X254500D01*
Y530000D01*
X272000D01*
X273500Y530000D01*
X274500Y527914D01*
Y520500D01*
X293500D01*
Y520742D01*
X296000Y521444D01*
X297246Y520198D01*
X299754Y518750D01*
X302552Y518000D01*
X305448D01*
X308246Y518750D01*
X310754Y520198D01*
X312802Y522246D01*
X314250Y524754D01*
X315000Y527552D01*
Y530448D01*
X314250Y533246D01*
X312802Y535754D01*
X310754Y537802D01*
X308246Y539250D01*
X305448Y540000D01*
X302552D01*
X299754Y539250D01*
X297246Y537802D01*
X296000Y536556D01*
X293500Y537258D01*
Y537500D01*
X276000D01*
X274500Y537500D01*
X273500Y539586D01*
Y547000D01*
X254500D01*
Y546569D01*
X241500D01*
Y548000D01*
X220411D01*
X216256Y552155D01*
X214585Y553438D01*
X212639Y554244D01*
X210550Y554519D01*
X174555D01*
X173974Y555195D01*
X173267Y557019D01*
X174225Y558679D01*
X174900Y561197D01*
Y563163D01*
X175932Y564348D01*
X177167Y565000D01*
X201500D01*
Y566931D01*
X219500D01*
X220025Y567000D01*
X242500D01*
Y568431D01*
X254500D01*
Y568000D01*
X272000D01*
X273500Y568000D01*
X274500Y565914D01*
Y558500D01*
X293500D01*
Y559940D01*
X378075D01*
X383940Y554076D01*
Y532000D01*
X384180Y530173D01*
X384885Y528470D01*
X386008Y527007D01*
X484207Y428808D01*
X485670Y427686D01*
X487373Y426980D01*
X489200Y426740D01*
X626350D01*
Y417069D01*
X619487D01*
X618754Y417802D01*
X616246Y419250D01*
X613448Y420000D01*
X610552D01*
X607754Y419250D01*
X605246Y417802D01*
X603198Y415754D01*
X601750Y413246D01*
X601000Y410448D01*
Y407552D01*
X601750Y404754D01*
X603198Y402246D01*
X603385Y402059D01*
X603322Y398586D01*
X602798Y398061D01*
X601284Y395439D01*
X600500Y392514D01*
Y389486D01*
X601284Y386561D01*
X602798Y383939D01*
X604637Y382100D01*
X604422Y380846D01*
X603745Y379600D01*
X495850D01*
Y349300D01*
X584731D01*
X584945Y347673D01*
X585751Y345727D01*
X587033Y344055D01*
X590520Y340569D01*
X589484Y338069D01*
X344500D01*
X342412Y337794D01*
X340466Y336988D01*
X338794Y335706D01*
X332658Y329569D01*
X329000D01*
X326912Y329294D01*
X326500Y329124D01*
X324411Y330236D01*
X324000Y330789D01*
Y338750D01*
Y358250D01*
X307000D01*
Y348086D01*
X306000Y346000D01*
X298411D01*
X273206Y371206D01*
X271535Y372488D01*
X269588Y373294D01*
X267500Y373569D01*
X260058D01*
X259751Y375109D01*
X258613Y376813D01*
X256909Y377951D01*
X254900Y378351D01*
X249200D01*
X247191Y377951D01*
X245487Y376813D01*
X244349Y375109D01*
X243949Y373100D01*
Y357900D01*
X244349Y355891D01*
X245487Y354187D01*
X247191Y353049D01*
X249200Y352649D01*
X254900D01*
X256909Y353049D01*
X258613Y354187D01*
X259751Y355891D01*
X260058Y357431D01*
X264158D01*
X287000Y334589D01*
Y330000D01*
Y319500D01*
X282524D01*
X282000Y319569D01*
X278250D01*
Y320000D01*
X259972D01*
X259751Y321109D01*
X258613Y322813D01*
X256909Y323951D01*
X254900Y324351D01*
X249200D01*
X247191Y323951D01*
X245700Y322955D01*
X244209Y323951D01*
X242200Y324351D01*
X236500D01*
X235229Y324098D01*
X230771D01*
X229500Y324351D01*
X223800D01*
X221791Y323951D01*
X220087Y322813D01*
X218949Y321109D01*
X218549Y319100D01*
Y303900D01*
X218949Y301891D01*
X220087Y300187D01*
X221791Y299049D01*
X222132Y298981D01*
Y283521D01*
X222113D01*
X222250Y281782D01*
Y275250D01*
X223183D01*
X223889Y272308D01*
X226068Y267047D01*
X229043Y262192D01*
X232741Y257862D01*
X232755Y257876D01*
X235005Y256149D01*
X236810Y255401D01*
X244840Y247371D01*
X245588Y245566D01*
X247315Y243315D01*
X247313Y243312D01*
X251057Y240114D01*
X255257Y237541D01*
X259806Y235656D01*
X264595Y234507D01*
X269505Y234120D01*
Y234124D01*
X270499D01*
X273312Y234494D01*
X275933Y235580D01*
X277703Y236938D01*
X278022Y236950D01*
X290950D01*
Y253050D01*
X277698D01*
X275933Y254404D01*
X273312Y255490D01*
X270499Y255860D01*
X269505D01*
X269319Y255835D01*
X266996Y256141D01*
X264658Y257110D01*
X262689Y258620D01*
X262685Y258685D01*
Y258685D01*
X260434Y260412D01*
X258629Y261160D01*
X250599Y269189D01*
X249851Y270994D01*
X248124Y273245D01*
X248124D01*
X248004Y273253D01*
X245736Y276210D01*
X244275Y279736D01*
X244076Y281249D01*
X246158Y283749D01*
X263749D01*
Y288431D01*
X295000D01*
X295000Y288431D01*
X307500D01*
Y287500D01*
X337500D01*
Y313629D01*
X338088Y313706D01*
X340034Y314512D01*
X341706Y315794D01*
X347842Y321931D01*
X810513D01*
X811246Y321198D01*
X813754Y319750D01*
X816552Y319000D01*
X819448D01*
X822246Y319750D01*
X824754Y321198D01*
X826802Y323246D01*
X828250Y325754D01*
X829000Y328552D01*
Y331448D01*
X828250Y334246D01*
X828044Y334603D01*
X828534Y337512D01*
X828879Y337776D01*
X830206Y338794D01*
X850706Y359294D01*
X851988Y360965D01*
X852794Y362912D01*
X853069Y365000D01*
Y391000D01*
X852794Y393088D01*
X851988Y395034D01*
X850706Y396706D01*
X845206Y402206D01*
X843534Y403488D01*
X841588Y404294D01*
X841028Y404368D01*
Y404500D01*
X840024D01*
X839500Y404569D01*
X839069D01*
Y454972D01*
X839000Y455496D01*
Y465472D01*
X838143D01*
X837214Y467972D01*
X837988Y468980D01*
X838794Y470926D01*
X838873Y471528D01*
X839000D01*
Y472490D01*
X839069Y473015D01*
Y521531D01*
X844305D01*
Y548549D01*
X824907D01*
Y532825D01*
X824012Y531659D01*
X823206Y529712D01*
X822931Y527624D01*
Y523000D01*
X811470D01*
Y492528D01*
X805135D01*
X804000Y492528D01*
X804000Y492528D01*
X802750Y492250D01*
Y492250D01*
X785750D01*
Y472750D01*
X802750D01*
X804206Y470926D01*
X805012Y468980D01*
X805786Y467972D01*
X805547Y467331D01*
X804000Y465472D01*
X801811Y464722D01*
X785750D01*
Y449750D01*
X785750D01*
Y434069D01*
X740750D01*
Y436250D01*
X721808D01*
X720840Y437432D01*
X721500Y439932D01*
X721500D01*
Y449908D01*
X721569Y450432D01*
Y457250D01*
X722250D01*
Y476750D01*
X705250D01*
Y457250D01*
X705431D01*
Y450432D01*
X705500Y449908D01*
Y444069D01*
X702500D01*
Y449908D01*
X702569Y450432D01*
X702500Y450956D01*
Y460932D01*
X686731D01*
Y461780D01*
X683500D01*
Y471250D01*
Y490750D01*
X683069D01*
Y531000D01*
X682794Y533088D01*
X681988Y535034D01*
X680706Y536706D01*
X679500Y537911D01*
Y547089D01*
X687161Y554750D01*
X694250D01*
Y573250D01*
X675750D01*
Y566161D01*
X668589Y559000D01*
X660500D01*
Y544069D01*
X656650D01*
Y550150D01*
X626950D01*
Y560625D01*
X627019Y561150D01*
Y562608D01*
X635911Y571500D01*
X637514D01*
X640439Y572284D01*
X643061Y573798D01*
X645202Y575939D01*
X646716Y578561D01*
X647500Y581486D01*
Y584514D01*
X646716Y587439D01*
X645202Y590061D01*
X643061Y592202D01*
X640439Y593716D01*
X637514Y594500D01*
X634486D01*
X631561Y593716D01*
X628939Y592202D01*
X626798Y590061D01*
X625284Y587439D01*
X624500Y584514D01*
Y582911D01*
X613244Y571656D01*
X611962Y569985D01*
X611616Y569150D01*
X602687D01*
X602057Y571646D01*
X604439Y572284D01*
X607061Y573798D01*
X609202Y575939D01*
X610716Y578561D01*
X611500Y581486D01*
Y584514D01*
X610716Y587439D01*
X609202Y590061D01*
X607061Y592202D01*
X604439Y593716D01*
X601514Y594500D01*
X598486D01*
X595561Y593716D01*
X592939Y592202D01*
X590798Y590061D01*
X589284Y587439D01*
X588500Y584514D01*
Y581486D01*
X588621Y581033D01*
X587844Y580256D01*
X586562Y578585D01*
X585756Y576638D01*
X585481Y574550D01*
Y569150D01*
X470086D01*
Y578431D01*
X500000D01*
X500524Y578500D01*
X509500D01*
Y592250D01*
X525250D01*
Y605922D01*
X773980D01*
Y555948D01*
X850020D01*
Y639100D01*
D02*
G37*
G36*
X201750Y535750D02*
X157450D01*
Y513050D01*
X182426D01*
X182950Y512981D01*
X191608D01*
X210794Y493794D01*
X211000Y493637D01*
Y490000D01*
X242000D01*
Y491431D01*
X254500D01*
Y491000D01*
X272000D01*
X273500Y491000D01*
X274500Y488914D01*
Y481500D01*
X293500D01*
Y481742D01*
X296000Y482444D01*
X297246Y481198D01*
X299754Y479750D01*
X302552Y479000D01*
X305448D01*
X308246Y479750D01*
X310754Y481198D01*
X312802Y483246D01*
X314250Y485754D01*
X315000Y488552D01*
Y491448D01*
X314250Y494246D01*
X312802Y496754D01*
X310754Y498802D01*
X308246Y500250D01*
X305448Y501000D01*
X302552D01*
X299754Y500250D01*
X297246Y498802D01*
X296000Y497556D01*
X293500Y498258D01*
Y498500D01*
X276000D01*
X274500Y498500D01*
X273500Y500586D01*
Y508000D01*
X254500D01*
Y507569D01*
X242000D01*
Y509000D01*
X218411D01*
X201750Y525661D01*
Y535750D01*
D02*
G37*
G36*
X272500Y428868D02*
X269687Y428498D01*
X267066Y427412D01*
X265226Y426000D01*
X260623D01*
X259434Y426912D01*
X256813Y427998D01*
X254000Y428368D01*
Y428377D01*
X248834Y427970D01*
X243795Y426760D01*
X239008Y424777D01*
X234589Y422070D01*
X230649Y418704D01*
X230644Y418709D01*
X229034Y416873D01*
X226263Y413714D01*
X222572Y408189D01*
X219633Y402230D01*
X217497Y395938D01*
X217360Y395250D01*
X216500D01*
Y390926D01*
X216201Y389421D01*
X215926Y385231D01*
X215766Y382791D01*
X215766Y382791D01*
X215782D01*
X215782Y365500D01*
X216152Y362687D01*
X217238Y360066D01*
X218549Y358357D01*
Y357900D01*
X218949Y355891D01*
X220087Y354187D01*
X221791Y353049D01*
X223800Y352649D01*
X229500D01*
X231509Y353049D01*
X233213Y354187D01*
X234351Y355891D01*
X234751Y357900D01*
Y358357D01*
X236062Y360066D01*
X237148Y362687D01*
X237518Y365500D01*
X237518Y382791D01*
X237483Y383056D01*
X237820Y387343D01*
X238887Y391783D01*
X240634Y396002D01*
X243020Y399896D01*
X245813Y403166D01*
X246025Y403329D01*
X246172Y403520D01*
X248329Y405176D01*
X251065Y406309D01*
X253938Y406687D01*
X254000Y406632D01*
Y406632D01*
X256813Y407002D01*
X259434Y408088D01*
X261685Y409815D01*
X261827Y410000D01*
X265218D01*
X267091Y408563D01*
X269712Y407477D01*
X272525Y407107D01*
X285213D01*
X288026Y407477D01*
X290647Y408563D01*
X292898Y410290D01*
X292911Y410308D01*
X296190D01*
Y425642D01*
X292911D01*
X292898Y425660D01*
X290647Y427387D01*
X288026Y428473D01*
X285213Y428843D01*
X272690D01*
X272500Y428868D01*
D02*
G37*
G36*
X329750Y451250D02*
X311250D01*
Y447893D01*
X305287D01*
X302474Y447523D01*
X299853Y446437D01*
X297602Y444710D01*
X297589Y444692D01*
X293810D01*
Y429358D01*
X297589D01*
X297602Y429340D01*
X299853Y427613D01*
X302474Y426527D01*
X305287Y426157D01*
X328310D01*
X328500Y426132D01*
X331313Y426502D01*
X333934Y427588D01*
X335774Y429000D01*
X339378D01*
X340566Y428088D01*
X343187Y427002D01*
X346000Y426632D01*
X355350D01*
Y418980D01*
X385650D01*
Y448480D01*
X355350D01*
Y448368D01*
X346000D01*
X343187Y447998D01*
X340566Y446912D01*
X338315Y445185D01*
X338173Y445000D01*
X335782D01*
X333909Y446437D01*
X331288Y447523D01*
X329750Y447725D01*
Y451250D01*
D02*
G37*
G36*
X169620Y459314D02*
X158745D01*
X156657Y459039D01*
X154711Y458233D01*
X154497Y458069D01*
X143000D01*
X142475Y458000D01*
X128500D01*
Y438000D01*
X152832D01*
X154068Y437348D01*
X155100Y436163D01*
Y434197D01*
X155775Y431679D01*
X157078Y429421D01*
X158921Y427578D01*
X159701Y427128D01*
X159717Y427103D01*
X159952Y426539D01*
X160144Y425873D01*
X160294Y424630D01*
X160127Y424084D01*
X160095Y424035D01*
X160043Y423776D01*
X159945Y423530D01*
X159947Y423293D01*
X159901Y423060D01*
Y416450D01*
X160095Y415475D01*
X160648Y414648D01*
X161475Y414095D01*
X162450Y413901D01*
X162694D01*
X163159Y413294D01*
X164830Y412012D01*
X166776Y411206D01*
X168865Y410931D01*
X183350D01*
X185438Y411206D01*
X187384Y412012D01*
X188672Y413000D01*
X201500D01*
Y433000D01*
X192569D01*
Y436365D01*
X192294Y438453D01*
X191488Y440399D01*
X190206Y442070D01*
X175325Y456951D01*
X173654Y458233D01*
X171708Y459039D01*
X169620Y459314D01*
D02*
G37*
G36*
X56112Y396344D02*
X52388D01*
X48791Y395380D01*
X45565Y393518D01*
X42932Y390885D01*
X41070Y387659D01*
X40106Y384062D01*
Y380338D01*
X41070Y376741D01*
X42932Y373515D01*
X45565Y370882D01*
X48791Y369020D01*
X52388Y368056D01*
X56112D01*
X59709Y369020D01*
X62935Y370882D01*
X65568Y373515D01*
X67430Y376741D01*
X68394Y380338D01*
Y384062D01*
X67430Y387659D01*
X65568Y390885D01*
X62935Y393518D01*
X59709Y395380D01*
X56112Y396344D01*
D02*
G37*
G36*
X119612D02*
X115888D01*
X112291Y395380D01*
X109065Y393518D01*
X106432Y390885D01*
X104570Y387659D01*
X103606Y384062D01*
Y380338D01*
X104570Y376741D01*
X106432Y373515D01*
X107664Y372284D01*
Y316500D01*
Y262428D01*
X70704Y225468D01*
X68394Y226425D01*
Y243944D01*
X40106D01*
Y215656D01*
X57625D01*
X58582Y213346D01*
X57368Y212132D01*
X55765Y210043D01*
X54757Y207610D01*
X54414Y205000D01*
Y127000D01*
X54757Y124389D01*
X55765Y121957D01*
X57368Y119868D01*
X72863Y104373D01*
X74952Y102770D01*
X75507Y102540D01*
Y75437D01*
X89838D01*
X90493Y75351D01*
X98385D01*
X114500Y59236D01*
Y10500D01*
X143500D01*
Y73500D01*
X128764D01*
X109695Y92569D01*
X107606Y94172D01*
X105174Y95180D01*
X102563Y95523D01*
X100493D01*
Y121505D01*
X86162D01*
X85507Y121591D01*
X84173D01*
X74586Y131178D01*
Y156376D01*
X75507Y158495D01*
X100493D01*
Y177301D01*
X191507D01*
Y158495D01*
X216493D01*
Y169207D01*
X218993Y170243D01*
X259600Y129636D01*
Y118000D01*
X286400D01*
Y118000D01*
X320000D01*
Y120414D01*
X328322D01*
X337000Y111736D01*
Y109100D01*
X339636D01*
X389368Y59368D01*
X391457Y57765D01*
X393890Y56757D01*
X396500Y56414D01*
X504822D01*
X507868Y53368D01*
X507338Y51842D01*
X506700Y51000D01*
X503754D01*
X500575Y50148D01*
X497725Y48502D01*
X495397Y46175D01*
X494083Y43898D01*
X493002Y43643D01*
X492398D01*
X491317Y43898D01*
X490003Y46175D01*
X487675Y48502D01*
X484825Y50148D01*
X481646Y51000D01*
X478354D01*
X475175Y50148D01*
X472325Y48502D01*
X469997Y46175D01*
X468352Y43325D01*
X467500Y40146D01*
Y37411D01*
X459658Y29569D01*
X441360D01*
X439921Y32069D01*
X440848Y33675D01*
X441700Y36854D01*
Y40146D01*
X440848Y43325D01*
X439202Y46175D01*
X436875Y48502D01*
X434025Y50148D01*
X430846Y51000D01*
X427554D01*
X424375Y50148D01*
X421525Y48502D01*
X419198Y46175D01*
X417883Y43898D01*
X416802Y43643D01*
X416198D01*
X415117Y43898D01*
X413802Y46175D01*
X411475Y48502D01*
X408625Y50148D01*
X405446Y51000D01*
X402154D01*
X398975Y50148D01*
X396125Y48502D01*
X393797Y46175D01*
X392152Y43325D01*
X391300Y40146D01*
Y36854D01*
X392152Y33675D01*
X393079Y32069D01*
X391640Y29569D01*
X365160D01*
X363721Y32069D01*
X364648Y33675D01*
X365500Y36854D01*
Y40146D01*
X364648Y43325D01*
X363003Y46175D01*
X360675Y48502D01*
X357825Y50148D01*
X354646Y51000D01*
X351354D01*
X348175Y50148D01*
X345325Y48502D01*
X342998Y46175D01*
X341352Y43325D01*
X340500Y40146D01*
Y36854D01*
X341352Y33675D01*
X342279Y32069D01*
X340840Y29569D01*
X312842D01*
X305000Y37411D01*
Y45000D01*
X290069D01*
Y48982D01*
X290069Y48982D01*
Y49728D01*
X290000Y50253D01*
Y58475D01*
X279628D01*
X278671Y60785D01*
X285411Y67525D01*
X290000D01*
Y72860D01*
X297706Y80566D01*
X298988Y82237D01*
X299304Y83000D01*
X320000D01*
Y108000D01*
X286400D01*
Y111000D01*
X259600D01*
Y108586D01*
X216493D01*
Y121505D01*
X191507D01*
Y95523D01*
X190966D01*
X188356Y95180D01*
X185923Y94172D01*
X183834Y92569D01*
X164765Y73500D01*
X148500D01*
Y10500D01*
X165097D01*
X166889Y9757D01*
X169500Y9414D01*
X181470D01*
X181754Y9250D01*
X184552Y8500D01*
X187448D01*
X190246Y9250D01*
X192754Y10698D01*
X194802Y12746D01*
X196250Y15254D01*
X197000Y18052D01*
Y20948D01*
X196250Y23746D01*
X194802Y26254D01*
X192754Y28302D01*
X190246Y29750D01*
X187448Y30500D01*
X184552D01*
X181754Y29750D01*
X181470Y29586D01*
X177500D01*
Y57707D01*
X195144Y75351D01*
X201507D01*
X202162Y75437D01*
X216493D01*
Y88414D01*
X259600D01*
Y86000D01*
X271907D01*
X274000Y85018D01*
Y78936D01*
X262472Y67408D01*
X260325Y68648D01*
X257146Y69500D01*
X253854D01*
X250675Y68648D01*
X247825Y67003D01*
X245497Y64675D01*
X243852Y61825D01*
X243000Y58646D01*
Y55354D01*
X243852Y52175D01*
X245497Y49325D01*
X247825Y46997D01*
X250675Y45352D01*
X253854Y44500D01*
X257146D01*
X260325Y45352D01*
X263175Y46997D01*
X265356Y49179D01*
X265563Y49206D01*
X267509Y50012D01*
X269181Y51294D01*
X271690Y53804D01*
X274000Y52847D01*
Y50253D01*
X273931Y49728D01*
Y48982D01*
X273931Y48982D01*
Y35500D01*
X274000Y34976D01*
Y26000D01*
X293589D01*
X303794Y15794D01*
X305466Y14512D01*
X307412Y13706D01*
X309500Y13431D01*
X463000D01*
X465088Y13706D01*
X467034Y14512D01*
X468706Y15794D01*
X478911Y26000D01*
X481646D01*
X484825Y26852D01*
X487675Y28498D01*
X490003Y30825D01*
X491317Y33102D01*
X492398Y33357D01*
X493002D01*
X494083Y33102D01*
X495397Y30825D01*
X497725Y28498D01*
X500575Y26852D01*
X503754Y26000D01*
X507046D01*
X510225Y26852D01*
X513075Y28498D01*
X515402Y30825D01*
X515800Y31513D01*
X518300Y30844D01*
Y26000D01*
X543300D01*
Y51000D01*
X537550D01*
X537035Y52243D01*
X535432Y54332D01*
X516132Y73632D01*
X514043Y75235D01*
X511610Y76243D01*
X509000Y76586D01*
X400678D01*
X362000Y115264D01*
Y135900D01*
X341364D01*
X339632Y137632D01*
X337543Y139235D01*
X335111Y140243D01*
X332500Y140586D01*
X320000D01*
Y143000D01*
X284000D01*
Y143000D01*
X274764D01*
X229103Y188661D01*
X227014Y190264D01*
X224582Y191272D01*
X221971Y191615D01*
X216493D01*
Y204563D01*
X191507D01*
Y197473D01*
X127836D01*
Y219884D01*
X129068Y221115D01*
X130930Y224341D01*
X131894Y227938D01*
Y229680D01*
X166301Y264086D01*
X167903Y266175D01*
X168911Y268608D01*
X169255Y271218D01*
Y273500D01*
X174900D01*
Y298500D01*
X148100D01*
Y274414D01*
X130119Y256433D01*
X127751Y257600D01*
X127836Y258250D01*
Y306414D01*
X148100D01*
Y305500D01*
X174900D01*
Y330500D01*
X148100D01*
Y326586D01*
X127836D01*
Y372284D01*
X129068Y373515D01*
X130930Y376741D01*
X131894Y380338D01*
Y384062D01*
X130930Y387659D01*
X129068Y390885D01*
X126435Y393518D01*
X123209Y395380D01*
X119612Y396344D01*
D02*
G37*
G36*
X421724Y262500D02*
X418276D01*
X414895Y261828D01*
X411711Y260508D01*
X408844Y258593D01*
X406407Y256156D01*
X406215Y255868D01*
X387000D01*
X384187Y255498D01*
X381566Y254412D01*
X381355Y254250D01*
X352789D01*
X352578Y254412D01*
X349956Y255498D01*
X347144Y255868D01*
X328000D01*
X325187Y255498D01*
X322566Y254412D01*
X320815Y253068D01*
X320339Y253050D01*
X307350D01*
Y236950D01*
X320791D01*
X322566Y235588D01*
X325187Y234502D01*
X328000Y234132D01*
X347144D01*
X349939Y234500D01*
X355500D01*
Y235750D01*
X378500D01*
Y234500D01*
X384205D01*
X387000Y234132D01*
X406215D01*
X406407Y233844D01*
X408844Y231407D01*
X411711Y229492D01*
X414895Y228172D01*
X418276Y227500D01*
X421724D01*
X425105Y228172D01*
X428289Y229492D01*
X431156Y231407D01*
X433593Y233844D01*
X435508Y236711D01*
X436828Y239895D01*
X437500Y243276D01*
Y246724D01*
X436828Y250105D01*
X435508Y253289D01*
X433593Y256156D01*
X431156Y258593D01*
X428289Y260508D01*
X425105Y261828D01*
X421724Y262500D01*
D02*
G37*
G36*
X660514Y226500D02*
X657486D01*
X654561Y225716D01*
X651939Y224202D01*
X649982Y222246D01*
X649134Y221978D01*
X647866D01*
X647018Y222246D01*
X645061Y224202D01*
X642439Y225716D01*
X639514Y226500D01*
X636486D01*
X633561Y225716D01*
X630939Y224202D01*
X628798Y222061D01*
X627284Y219439D01*
X626500Y216514D01*
Y213486D01*
X627284Y210561D01*
X628798Y207939D01*
X630939Y205798D01*
X633561Y204284D01*
X636088Y203607D01*
X639681Y200014D01*
Y172000D01*
X637168D01*
X635932Y172652D01*
X634900Y173837D01*
Y175803D01*
X634225Y178321D01*
X632922Y180579D01*
X631079Y182422D01*
X628821Y183725D01*
X626303Y184400D01*
X623697D01*
X621179Y183725D01*
X618921Y182422D01*
X617078Y180579D01*
X615775Y178321D01*
X592612Y178321D01*
X590291Y178321D01*
X590112Y178500D01*
X590112Y175895D01*
Y152750D01*
X620353D01*
X621009Y153406D01*
X621475Y153095D01*
X622450Y152901D01*
X636500D01*
Y152000D01*
X656931D01*
Y149342D01*
X652058Y144469D01*
X632550D01*
Y147750D01*
X588250D01*
Y125050D01*
X632550D01*
Y128331D01*
X655400D01*
X657488Y128606D01*
X659435Y129412D01*
X661106Y130694D01*
X670706Y140294D01*
X671988Y141966D01*
X672794Y143912D01*
X673069Y146000D01*
Y207106D01*
X672794Y209194D01*
X671988Y211140D01*
X670706Y212812D01*
X670401Y213116D01*
X670500Y213486D01*
Y216514D01*
X669716Y219439D01*
X668202Y222061D01*
X666061Y224202D01*
X663439Y225716D01*
X660514Y226500D01*
D02*
G37*
G36*
X582514Y122500D02*
X579486D01*
X576561Y121716D01*
X573939Y120202D01*
X571798Y118061D01*
X570284Y115439D01*
X569500Y112514D01*
Y109486D01*
X570284Y106561D01*
X571798Y103939D01*
X573939Y101798D01*
X576537Y100298D01*
X576561Y100202D01*
Y97798D01*
X576537Y97702D01*
X573939Y96202D01*
X571798Y94061D01*
X570284Y91439D01*
X569500Y88514D01*
Y85486D01*
X570284Y82561D01*
X571798Y79939D01*
X573939Y77798D01*
X576561Y76284D01*
X579486Y75500D01*
X582514D01*
X585439Y76284D01*
X585750Y76463D01*
X588250Y75020D01*
Y74250D01*
X632550D01*
Y96950D01*
X588250D01*
X588250Y96950D01*
Y96950D01*
X588250Y96950D01*
X585946Y97423D01*
X585463Y97702D01*
X585439Y97798D01*
Y100202D01*
X585463Y100298D01*
X588061Y101798D01*
X589194Y102931D01*
X617450D01*
Y99650D01*
X661750D01*
Y122350D01*
X617450D01*
Y119069D01*
X589194D01*
X588061Y120202D01*
X585439Y121716D01*
X582514Y122500D01*
D02*
G37*
G36*
X656320Y94650D02*
X637550D01*
Y70814D01*
X637876Y69138D01*
X639739Y68500D01*
X654896D01*
Y84750D01*
X655309Y87883D01*
X656518Y90802D01*
X657552Y92150D01*
X656320Y94650D01*
D02*
G37*
G36*
X626303Y57400D02*
X623697D01*
X621179Y56725D01*
X618921Y55422D01*
X617078Y53579D01*
X615775Y51321D01*
X615100Y48803D01*
Y46837D01*
X614068Y45652D01*
X612832Y45000D01*
X588500D01*
Y25000D01*
X613500D01*
Y25901D01*
X627550D01*
X628525Y26095D01*
X629352Y26648D01*
X629905Y27475D01*
X630099Y28450D01*
Y35060D01*
X630053Y35293D01*
X630055Y35530D01*
X629957Y35775D01*
X629905Y36035D01*
X629873Y36084D01*
X629706Y36630D01*
X629856Y37873D01*
X630048Y38538D01*
X630283Y39103D01*
X630299Y39128D01*
X631079Y39578D01*
X632922Y41421D01*
X634225Y43679D01*
X634900Y46197D01*
Y48803D01*
X634225Y51321D01*
X632922Y53579D01*
X631079Y55422D01*
X628821Y56725D01*
X626303Y57400D01*
D02*
G37*
%LPD*%
G36*
X490500Y596500D02*
X475250D01*
Y596000D01*
X470000D01*
Y599250D01*
X459854D01*
X458897Y601560D01*
X463260Y605922D01*
X490500D01*
Y596500D01*
D02*
G37*
G36*
X196750Y568850D02*
X176000D01*
X175700Y569340D01*
X175410Y569780D01*
X175100Y570210D01*
X174770Y570630D01*
X174420Y571030D01*
X174060Y571410D01*
X173680Y571780D01*
X173290Y572140D01*
X172880Y572470D01*
X172460Y572790D01*
X172030Y573100D01*
X171580Y573380D01*
X171120Y573640D01*
X170650Y573890D01*
X170170Y574120D01*
X169680Y574320D01*
X169190Y574500D01*
X168690Y574670D01*
X168180Y574810D01*
X167660Y574930D01*
X167140Y575030D01*
X166620Y575110D01*
X166090Y575160D01*
X165560Y575200D01*
X165030Y575210D01*
X164500Y575200D01*
X163980Y575160D01*
X163450Y575110D01*
X162930Y575030D01*
X162450Y574940D01*
Y581550D01*
X196750D01*
Y568850D01*
D02*
G37*
G36*
X154300Y555660D02*
X154590Y555220D01*
X154900Y554790D01*
X155230Y554370D01*
X155580Y553970D01*
X155940Y553590D01*
X156320Y553220D01*
X156710Y552860D01*
X157120Y552530D01*
X157540Y552210D01*
X157970Y551900D01*
X158420Y551620D01*
X158880Y551360D01*
X159350Y551110D01*
X159830Y550880D01*
X160320Y550680D01*
X160810Y550500D01*
X161310Y550330D01*
X161820Y550190D01*
X162340Y550070D01*
X162860Y549970D01*
X163380Y549890D01*
X163910Y549840D01*
X164440Y549800D01*
X164970Y549790D01*
X165500Y549800D01*
X166020Y549840D01*
X166550Y549890D01*
X167070Y549970D01*
X167550Y550060D01*
Y543450D01*
X133250D01*
Y556150D01*
X154000D01*
X154300Y555660D01*
D02*
G37*
G36*
X626350Y495250D02*
Y474010D01*
X558974D01*
X535294Y497691D01*
X536294Y500227D01*
X538246Y500750D01*
X540754Y502198D01*
X542496Y503940D01*
X626350D01*
Y495250D01*
D02*
G37*
G36*
X616542Y412972D02*
X616842Y412768D01*
X617185Y412588D01*
X617571Y412432D01*
X618001Y412300D01*
X618474Y412192D01*
X618989Y412108D01*
X619548Y412048D01*
X620796Y412000D01*
Y406000D01*
X620151Y405988D01*
X618989Y405892D01*
X618474Y405808D01*
X618001Y405700D01*
X617571Y405568D01*
X617185Y405412D01*
X616842Y405232D01*
X616542Y405028D01*
X616285Y404800D01*
Y413200D01*
X616542Y412972D01*
D02*
G37*
G36*
X631381Y403000D02*
X631320Y403570D01*
X631141Y404080D01*
X630840Y404530D01*
X630420Y404920D01*
X629880Y405250D01*
X629221Y405520D01*
X628441Y405730D01*
X627541Y405880D01*
X626521Y405970D01*
X625381Y406000D01*
Y412000D01*
X626521Y412030D01*
X627541Y412120D01*
X628441Y412270D01*
X629221Y412480D01*
X629880Y412750D01*
X630420Y413080D01*
X630840Y413470D01*
X631141Y413920D01*
X631320Y414430D01*
X631381Y415000D01*
Y403000D01*
D02*
G37*
G36*
X617643Y394314D02*
X617957Y394007D01*
X618318Y393736D01*
X618725Y393501D01*
X619178Y393302D01*
X619677Y393139D01*
X620221Y393013D01*
X620812Y392922D01*
X621449Y392868D01*
X622131Y392850D01*
X620903Y386850D01*
X620218Y386838D01*
X618962Y386747D01*
X618391Y386666D01*
X617363Y386436D01*
X616906Y386287D01*
X616487Y386114D01*
X616106Y385919D01*
X615764Y385700D01*
X617374Y394657D01*
X617643Y394314D01*
D02*
G37*
G36*
X631381Y392820D02*
Y383850D01*
X631320Y384420D01*
X631141Y384930D01*
X630840Y385380D01*
X630420Y385770D01*
X629880Y386100D01*
X629221Y386370D01*
X628441Y386580D01*
X627541Y386730D01*
X626521Y386820D01*
X625381Y386850D01*
Y392850D01*
X631381Y392820D01*
D02*
G37*
G36*
X666931Y527658D02*
Y490750D01*
X666500D01*
Y471250D01*
Y461780D01*
X663269D01*
Y439084D01*
X686329D01*
X687948Y437089D01*
X687512Y436520D01*
X686854Y434932D01*
X686500D01*
Y433010D01*
X686431Y432485D01*
Y425000D01*
X686468Y424716D01*
X686431Y424432D01*
Y414342D01*
X676589Y404500D01*
X675552D01*
X672754Y403750D01*
X670246Y402302D01*
X668198Y400254D01*
X666750Y397746D01*
X666000Y394948D01*
Y392052D01*
X666750Y389254D01*
X668198Y386746D01*
X670246Y384698D01*
X672754Y383250D01*
X675552Y382500D01*
X678448D01*
X681246Y383250D01*
X683754Y384698D01*
X685802Y386746D01*
X687250Y389254D01*
X688000Y392052D01*
Y393089D01*
X700206Y405294D01*
X701488Y406965D01*
X702294Y408912D01*
X702569Y411000D01*
Y424432D01*
X702532Y424716D01*
X702569Y425000D01*
Y427931D01*
X705431D01*
Y424432D01*
X705500Y423908D01*
Y413932D01*
X721500D01*
Y417931D01*
X779000D01*
Y402500D01*
X765000D01*
Y362500D01*
X795000D01*
Y369431D01*
X800162D01*
X800266Y369294D01*
X806524Y363037D01*
X806500Y362948D01*
Y360052D01*
X807250Y357254D01*
X808511Y355069D01*
X808132Y353840D01*
X807339Y352569D01*
X626950D01*
Y368350D01*
X656650D01*
Y393650D01*
Y419050D01*
Y444450D01*
Y469850D01*
Y495250D01*
Y520650D01*
Y527931D01*
X666658D01*
X666931Y527658D01*
D02*
G37*
G36*
X278280Y250434D02*
X282419Y249693D01*
X282646Y249653D01*
X283045Y249421D01*
X283342Y249067D01*
X283499Y248633D01*
X283499Y248402D01*
X283499D01*
X283500Y245000D01*
X283499Y241599D01*
X283499Y241368D01*
X283342Y240933D01*
X283045Y240578D01*
X282645Y240345D01*
X282418Y240304D01*
X282418Y240303D01*
X277999Y239500D01*
X270499Y239213D01*
Y250770D01*
X278280Y250434D01*
D02*
G37*
G36*
X167550Y447940D02*
X167070Y448030D01*
X166550Y448110D01*
X166020Y448160D01*
X165500Y448200D01*
X164970Y448210D01*
X164440Y448200D01*
X163910Y448160D01*
X163380Y448110D01*
X162860Y448030D01*
X162340Y447930D01*
X161820Y447810D01*
X161310Y447670D01*
X160810Y447500D01*
X160320Y447320D01*
X159830Y447120D01*
X159350Y446890D01*
X158880Y446640D01*
X158420Y446380D01*
X157970Y446100D01*
X157540Y445790D01*
X157120Y445470D01*
X156710Y445140D01*
X156320Y444780D01*
X155940Y444410D01*
X155580Y444030D01*
X155230Y443630D01*
X154900Y443210D01*
X154590Y442780D01*
X154300Y442340D01*
X154000Y441850D01*
X133250D01*
Y454550D01*
X167550D01*
Y447940D01*
D02*
G37*
G36*
X196750Y416450D02*
X162450D01*
Y423060D01*
X162930Y422970D01*
X163450Y422890D01*
X163980Y422840D01*
X164500Y422800D01*
X165030Y422790D01*
X165560Y422800D01*
X166090Y422840D01*
X166620Y422890D01*
X167140Y422970D01*
X167660Y423070D01*
X168180Y423190D01*
X168690Y423330D01*
X169190Y423500D01*
X169680Y423680D01*
X170170Y423880D01*
X170650Y424110D01*
X171120Y424360D01*
X171580Y424620D01*
X172030Y424900D01*
X172460Y425210D01*
X172880Y425530D01*
X173290Y425860D01*
X173680Y426220D01*
X174060Y426590D01*
X174420Y426970D01*
X174770Y427370D01*
X175100Y427790D01*
X175410Y428220D01*
X175700Y428660D01*
X176000Y429150D01*
X196750D01*
Y416450D01*
D02*
G37*
G36*
X123885Y375357D02*
X123646Y374966D01*
X123436Y374498D01*
X123254Y373953D01*
X123100Y373330D01*
X122974Y372630D01*
X122876Y371853D01*
X122764Y370067D01*
X122750Y369058D01*
X112750D01*
X112736Y370067D01*
X112526Y372630D01*
X112400Y373330D01*
X112246Y373953D01*
X112064Y374498D01*
X111854Y374966D01*
X111615Y375357D01*
X111349Y375670D01*
X124151D01*
X123885Y375357D01*
D02*
G37*
G36*
X153131Y310530D02*
X153031Y310715D01*
X152731Y310879D01*
X152231Y311025D01*
X151531Y311151D01*
X150631Y311258D01*
X148230Y311413D01*
X143131Y311500D01*
Y321500D01*
X145030Y321540D01*
X148230Y321857D01*
X149530Y322135D01*
X150631Y322492D01*
X151531Y322929D01*
X152231Y323445D01*
X152731Y324040D01*
X153031Y324715D01*
X153131Y325470D01*
Y310530D01*
D02*
G37*
G36*
X122850Y329600D02*
X123150Y327900D01*
X123650Y326400D01*
X124350Y325100D01*
X125250Y324000D01*
X126350Y323100D01*
X127650Y322400D01*
X129150Y321900D01*
X130850Y321600D01*
X132750Y321500D01*
Y311500D01*
X130850Y311400D01*
X129150Y311100D01*
X127650Y310600D01*
X126350Y309900D01*
X125250Y309000D01*
X124350Y307900D01*
X123650Y306600D01*
X123150Y305100D01*
X122850Y303400D01*
X122750Y301500D01*
X112750Y316500D01*
X122750Y331500D01*
X122850Y329600D01*
D02*
G37*
G36*
X130579Y235557D02*
X129875Y234834D01*
X128211Y232873D01*
X127805Y232289D01*
X127474Y231740D01*
X127217Y231225D01*
X127035Y230746D01*
X126927Y230301D01*
X126894Y229891D01*
X117841Y238944D01*
X118251Y238977D01*
X118696Y239085D01*
X119175Y239267D01*
X119690Y239524D01*
X120239Y239855D01*
X120823Y240261D01*
X121442Y240741D01*
X122784Y241925D01*
X123507Y242628D01*
X130579Y235557D01*
D02*
G37*
G36*
X123885Y222957D02*
X123646Y222566D01*
X123436Y222098D01*
X123254Y221553D01*
X123100Y220930D01*
X122974Y220230D01*
X122876Y219453D01*
X122764Y217667D01*
X122750Y216658D01*
X112750D01*
X112736Y217667D01*
X112526Y220230D01*
X112400Y220930D01*
X112246Y221553D01*
X112064Y222098D01*
X111854Y222566D01*
X111615Y222957D01*
X111349Y223270D01*
X124151D01*
X123885Y222957D01*
D02*
G37*
G36*
X122850Y200487D02*
X123150Y198787D01*
X123650Y197287D01*
X124350Y195987D01*
X125250Y194887D01*
X126350Y193987D01*
X127650Y193287D01*
X129150Y192787D01*
X130850Y192487D01*
X132750Y192387D01*
X117750Y182387D01*
X105463Y190578D01*
Y182387D01*
X103563Y182337D01*
X101863Y182187D01*
X100363Y181937D01*
X99062Y181587D01*
X97963Y181137D01*
X97063Y180587D01*
X96362Y179937D01*
X95863Y179187D01*
X95562Y178337D01*
X95463Y177387D01*
Y197387D01*
X95562Y196437D01*
X95863Y195587D01*
X96362Y194837D01*
X97063Y194187D01*
X97963Y193637D01*
X99062Y193187D01*
X100363Y192837D01*
X101863Y192587D01*
X103563Y192437D01*
X103654Y192435D01*
X104650Y192487D01*
X106350Y192787D01*
X107850Y193287D01*
X109150Y193987D01*
X110250Y194887D01*
X111150Y195987D01*
X111850Y197287D01*
X112350Y198787D01*
X112650Y200487D01*
X112750Y202387D01*
X122750D01*
X122850Y200487D01*
D02*
G37*
G36*
X196537Y177387D02*
X196437Y178337D01*
X196138Y179187D01*
X195637Y179937D01*
X194937Y180587D01*
X194037Y181137D01*
X192938Y181587D01*
X191637Y181937D01*
X190138Y182187D01*
X188438Y182337D01*
X186537Y182387D01*
Y192387D01*
X188438Y192437D01*
X190138Y192587D01*
X191637Y192837D01*
X192938Y193187D01*
X194037Y193637D01*
X194937Y194187D01*
X195637Y194837D01*
X196138Y195587D01*
X196437Y196437D01*
X196537Y197387D01*
Y177387D01*
D02*
G37*
G36*
X355000Y250500D02*
X359404Y249711D01*
X359576Y249681D01*
X359877Y249506D01*
X360101Y249239D01*
X360219Y248912D01*
Y248738D01*
X360219Y248738D01*
X360220Y245066D01*
X360219Y241263D01*
X360219Y241116D01*
X360119Y240840D01*
X359931Y240615D01*
X359678Y240467D01*
X359533Y240441D01*
X354719Y239566D01*
X347219D01*
Y250566D01*
X355000Y250500D01*
D02*
G37*
G36*
X387000Y239230D02*
X379219Y239566D01*
X375080Y240307D01*
X374853Y240347D01*
X374454Y240579D01*
X374157Y240933D01*
X374000Y241367D01*
X374000Y241597D01*
X374000Y241598D01*
X373999Y245000D01*
X374000Y248401D01*
X374000Y248632D01*
X374157Y249067D01*
X374454Y249422D01*
X374854Y249655D01*
X375081Y249696D01*
X375081Y249697D01*
X379500Y250500D01*
X387000Y250786D01*
Y239230D01*
D02*
G37*
G36*
X327650Y239221D02*
X319869Y239558D01*
X315730Y240299D01*
X315503Y240339D01*
X315104Y240571D01*
X314807Y240925D01*
X314650Y241359D01*
X314650Y241590D01*
X314650Y241590D01*
X314649Y244992D01*
X314650Y248393D01*
X314650Y248624D01*
X314807Y249059D01*
X315104Y249414D01*
X315504Y249647D01*
X315731Y249688D01*
X315731Y249689D01*
X320150Y250492D01*
X327650Y250779D01*
Y239221D01*
D02*
G37*
G36*
X656750Y155450D02*
X622450D01*
Y162060D01*
X622930Y161970D01*
X623450Y161890D01*
X623980Y161840D01*
X624500Y161800D01*
X625030Y161790D01*
X625560Y161800D01*
X626090Y161840D01*
X626620Y161890D01*
X627140Y161970D01*
X627660Y162070D01*
X628180Y162190D01*
X628690Y162330D01*
X629190Y162500D01*
X629680Y162680D01*
X630170Y162880D01*
X630650Y163110D01*
X631120Y163360D01*
X631580Y163620D01*
X632030Y163900D01*
X632460Y164210D01*
X632880Y164530D01*
X633290Y164860D01*
X633680Y165220D01*
X634060Y165590D01*
X634420Y165970D01*
X634770Y166370D01*
X635100Y166790D01*
X635410Y167220D01*
X635700Y167660D01*
X636000Y168150D01*
X656750D01*
Y155450D01*
D02*
G37*
G36*
X585966Y115255D02*
X586329Y114992D01*
X586732Y114760D01*
X587175Y114558D01*
X587658Y114388D01*
X588180Y114248D01*
X588742Y114139D01*
X589344Y114062D01*
X589985Y114016D01*
X590666Y114000D01*
Y108000D01*
X589985Y107985D01*
X588742Y107860D01*
X588180Y107752D01*
X587658Y107612D01*
X587175Y107442D01*
X586732Y107240D01*
X586329Y107008D01*
X585966Y106744D01*
X585642Y106450D01*
Y115550D01*
X585966Y115255D01*
D02*
G37*
G36*
X622481Y105000D02*
X622421Y105570D01*
X622240Y106080D01*
X621940Y106530D01*
X621521Y106920D01*
X620980Y107250D01*
X620321Y107520D01*
X619540Y107730D01*
X618641Y107880D01*
X617621Y107970D01*
X616480Y108000D01*
Y114000D01*
X617621Y114030D01*
X618641Y114120D01*
X619540Y114270D01*
X620321Y114480D01*
X620980Y114750D01*
X621521Y115080D01*
X621940Y115470D01*
X622240Y115920D01*
X622421Y116430D01*
X622481Y117000D01*
Y105000D01*
D02*
G37*
G36*
X593280Y80300D02*
X593220Y80870D01*
X593041Y81380D01*
X592741Y81830D01*
X592321Y82220D01*
X591781Y82550D01*
X591120Y82820D01*
X590340Y83030D01*
X589440Y83180D01*
X588882Y83229D01*
X588310Y83181D01*
X587742Y83088D01*
X587211Y82969D01*
X586718Y82824D01*
X586263Y82652D01*
X585845Y82453D01*
X585466Y82228D01*
X585125Y81977D01*
X586105Y91024D01*
X586398Y90696D01*
X586735Y90403D01*
X587114Y90145D01*
X587537Y89921D01*
X588003Y89731D01*
X588512Y89576D01*
X589064Y89455D01*
X589422Y89403D01*
X589440Y89405D01*
X590340Y89536D01*
X591120Y89719D01*
X591781Y89955D01*
X592321Y90243D01*
X592741Y90584D01*
X593041Y90976D01*
X593220Y91422D01*
X593280Y91919D01*
Y80300D01*
D02*
G37*
G36*
X614300Y40660D02*
X614590Y40220D01*
X614900Y39790D01*
X615230Y39370D01*
X615580Y38970D01*
X615940Y38590D01*
X616320Y38220D01*
X616710Y37860D01*
X617120Y37530D01*
X617540Y37210D01*
X617970Y36900D01*
X618420Y36620D01*
X618880Y36360D01*
X619350Y36110D01*
X619830Y35880D01*
X620320Y35680D01*
X620810Y35500D01*
X621310Y35330D01*
X621820Y35190D01*
X622340Y35070D01*
X622860Y34970D01*
X623380Y34890D01*
X623910Y34840D01*
X624440Y34800D01*
X624970Y34790D01*
X625500Y34800D01*
X626020Y34840D01*
X626550Y34890D01*
X627070Y34970D01*
X627550Y35060D01*
Y28450D01*
X593250D01*
Y41150D01*
X614000D01*
X614300Y40660D01*
D02*
G37*
D13*
X489200Y433800D02*
X641500D01*
X391000Y532000D02*
X489200Y433800D01*
X534000Y511000D02*
X640500D01*
X641500Y510000D01*
X499000Y524000D02*
X556050Y466950D01*
X633750D01*
X641500Y459200D01*
X284000Y490000D02*
X304000D01*
X284000Y567000D02*
X381000D01*
X391000Y557000D01*
Y532000D02*
Y557000D01*
X284000Y529000D02*
X304000D01*
D20*
X299150Y255150D02*
D03*
Y234850D02*
D03*
D21*
X317300Y245000D02*
D03*
X281000D02*
D03*
D22*
X252050Y365500D02*
D03*
X239350D02*
D03*
X226650D02*
D03*
X213950D02*
D03*
X226650Y311500D02*
D03*
X239350D02*
D03*
X252050D02*
D03*
X213950D02*
D03*
D23*
X794250Y454972D02*
D03*
X780750D02*
D03*
X794250Y482500D02*
D03*
X780750D02*
D03*
X774000Y409000D02*
D03*
X780750Y440000D02*
D03*
X700250Y467000D02*
D03*
X688500Y467000D02*
D03*
Y481000D02*
D03*
X329000Y335000D02*
D03*
X217250Y285000D02*
D03*
X329000Y348500D02*
D03*
X211500Y385500D02*
D03*
X794250Y440000D02*
D03*
X787500Y409000D02*
D03*
X315500Y335000D02*
D03*
Y348500D02*
D03*
X675000Y481000D02*
D03*
Y467000D02*
D03*
X225000Y385500D02*
D03*
X230750Y285000D02*
D03*
X713750Y467000D02*
D03*
D24*
X780000Y382500D02*
D03*
X735000D02*
D03*
X367500Y307500D02*
D03*
X322500D02*
D03*
D25*
X830528Y396500D02*
D03*
X803472Y377500D02*
D03*
Y396500D02*
D03*
X830528Y377500D02*
D03*
X803472Y387000D02*
D03*
D26*
X409000Y364450D02*
D03*
X434400D02*
D03*
X409000Y554000D02*
D03*
X459800Y364450D02*
D03*
X485200D02*
D03*
X434400Y554000D02*
D03*
X586800Y364450D02*
D03*
X510600D02*
D03*
X536000D02*
D03*
X612200D02*
D03*
X561400D02*
D03*
X459800Y554000D02*
D03*
X485200D02*
D03*
X510600D02*
D03*
X536000D02*
D03*
X561400D02*
D03*
X586800D02*
D03*
X612200D02*
D03*
D27*
X370500Y403230D02*
D03*
Y377830D02*
D03*
Y540430D02*
D03*
Y464230D02*
D03*
Y515030D02*
D03*
Y489630D02*
D03*
Y433730D02*
D03*
X641500Y484600D02*
D03*
Y459200D02*
D03*
Y433800D02*
D03*
Y408400D02*
D03*
Y383100D02*
D03*
Y510000D02*
D03*
Y535400D02*
D03*
D28*
X821500Y482028D02*
D03*
X704000Y424432D02*
D03*
X713500D02*
D03*
X694500D02*
D03*
X812000Y454972D02*
D03*
X831000Y482028D02*
D03*
X812000D02*
D03*
X831000Y454972D02*
D03*
X694500Y450432D02*
D03*
X713500D02*
D03*
D29*
X284713Y435120D02*
D03*
D30*
X305287Y417975D02*
D03*
Y437025D02*
D03*
X284713Y417975D02*
D03*
D31*
X675000Y427568D02*
D03*
Y450432D02*
D03*
D32*
X797503Y506500D02*
D03*
X823497D02*
D03*
D33*
X347500Y232500D02*
D03*
X386500D02*
D03*
X473000Y598000D02*
D03*
X386500Y242500D02*
D03*
X347500D02*
D03*
X473000Y588000D02*
D03*
D34*
X268500Y325000D02*
D03*
X485000Y601500D02*
D03*
X731000Y441250D02*
D03*
X268500Y311500D02*
D03*
X731000Y427750D02*
D03*
X485000Y588000D02*
D03*
D35*
X179600Y473600D02*
D03*
X150400Y499000D02*
D03*
X639600Y111000D02*
D03*
X610400Y136400D02*
D03*
Y85600D02*
D03*
X179600Y524400D02*
D03*
D36*
X248000Y561500D02*
D03*
Y523500D02*
D03*
Y484500D02*
D03*
X282000Y296500D02*
D03*
Y311500D02*
D03*
X670000Y551000D02*
D03*
Y536000D02*
D03*
X296500Y311500D02*
D03*
Y296500D02*
D03*
Y323000D02*
D03*
Y338000D02*
D03*
X500000Y586500D02*
D03*
X248000Y499500D02*
D03*
X500000Y601500D02*
D03*
X248000Y576500D02*
D03*
Y538500D02*
D03*
D37*
X320500Y456000D02*
D03*
X516000Y587500D02*
D03*
X685000Y578000D02*
D03*
X320500Y442000D02*
D03*
X685000Y564000D02*
D03*
X516000Y601500D02*
D03*
D38*
X264000Y519500D02*
D03*
Y480500D02*
D03*
Y557500D02*
D03*
X284000Y490000D02*
D03*
Y567000D02*
D03*
Y529000D02*
D03*
X264000Y576500D02*
D03*
Y538500D02*
D03*
Y499500D02*
D03*
D39*
X601000Y187000D02*
D03*
X649000Y60000D02*
D03*
Y162000D02*
D03*
X601000Y35000D02*
D03*
X189000Y423000D02*
D03*
X141000Y448000D02*
D03*
Y550000D02*
D03*
X189000Y575000D02*
D03*
D40*
X381500Y122500D02*
D03*
X349500D02*
D03*
D41*
X789394Y535040D02*
D03*
X834606D02*
D03*
D42*
X332500Y437000D02*
D03*
X342500D02*
D03*
X257500Y418000D02*
D03*
X267500D02*
D03*
D43*
X161500Y318000D02*
D03*
X273000Y130500D02*
D03*
X161500Y286000D02*
D03*
X273000Y98500D02*
D03*
D44*
X129000Y42000D02*
D03*
X163000D02*
D03*
D45*
X88000Y98471D02*
D03*
Y181529D02*
D03*
X204000D02*
D03*
Y98471D02*
D03*
D46*
X302000Y130500D02*
D03*
Y95500D02*
D03*
D47*
X812000Y597524D02*
D03*
D48*
X359999Y245000D02*
D03*
X373999D02*
D03*
X240499Y292999D02*
D03*
X254499D02*
D03*
D49*
X297000Y35500D02*
D03*
X282000D02*
D03*
X234500Y576500D02*
D03*
X219500D02*
D03*
X234000Y499500D02*
D03*
X219000D02*
D03*
X218500Y538500D02*
D03*
X233500D02*
D03*
D50*
X282000Y49728D02*
D03*
Y76272D02*
D03*
D51*
X440000Y588000D02*
D03*
X460000D02*
D03*
D52*
X242227Y263773D02*
D03*
X251773Y254227D02*
D03*
D88*
X255000Y251000D02*
G03*
X269505Y244992I14505J14505D01*
G01*
X238340Y411013D02*
G03*
X226650Y382791I28222J-28222D01*
G01*
X254000Y417500D02*
G03*
X238340Y411013I0J-22146D01*
G01*
X233000Y283521D02*
G03*
X240439Y265560I25400J0D01*
G01*
X305287Y437025D02*
X328475D01*
X328500Y437000D01*
X387000Y245000D02*
X420000D01*
X328000D02*
X347144D01*
X269505Y244992D02*
X270499D01*
X226650Y382791D02*
X226650Y365500D01*
X346000Y437500D02*
X366730D01*
X370500Y433730D01*
X272500Y418000D02*
X272525Y417975D01*
X285213D01*
X233000Y283521D02*
Y311500D01*
D90*
X378400Y38500D02*
D03*
X480000D02*
D03*
X429200D02*
D03*
X353000D02*
D03*
X505400D02*
D03*
X403800D02*
D03*
X255500Y57000D02*
D03*
D93*
X530800Y38500D02*
D03*
D95*
X625000Y174500D02*
D03*
Y47500D02*
D03*
X165000Y562500D02*
D03*
Y435500D02*
D03*
D102*
X233000Y338500D02*
D03*
D103*
X780730Y439980D02*
X780750Y440000D01*
X239350Y350650D02*
X239500Y350500D01*
X239350Y350650D02*
Y365500D01*
X213950Y350500D02*
Y365500D01*
Y311500D02*
Y326500D01*
X251444Y484500D02*
X255358Y480586D01*
X248000Y484500D02*
X251444D01*
X248000Y523500D02*
X251500D01*
X255386Y519614D01*
X248000Y561500D02*
X251500D01*
X255386Y557614D01*
X255358Y480586D02*
X263914D01*
X264000Y480500D01*
X265000D01*
X263886Y519614D02*
X264000Y519500D01*
X255386Y519614D02*
X263886D01*
X264000Y557500D02*
X264500Y557000D01*
X264000Y519500D02*
X264500Y519000D01*
X255386Y557614D02*
X264886D01*
X265000Y480500D02*
X265500Y480000D01*
X364280Y409450D02*
X370500Y403230D01*
X377250Y409980D01*
X370500Y464230D02*
X376730Y458000D01*
X364270D02*
X370500Y464230D01*
X421700Y554000D02*
X434400D01*
X409000D02*
X421700D01*
X255500Y57000D02*
X263475D01*
X282000Y75525D01*
Y76272D01*
X322000Y314500D02*
X329000Y321500D01*
X322000Y309500D02*
Y314500D01*
X336000Y321500D02*
X344500Y330000D01*
X329000Y321500D02*
X336000D01*
X344500Y330000D02*
X818000D01*
X598000Y344500D02*
X824500D01*
X845000Y365000D01*
X592739Y349761D02*
X598000Y344500D01*
X780000Y382500D02*
Y387500D01*
X787500Y395000D01*
Y409000D01*
X789500Y426000D02*
X794386Y430886D01*
X713500Y426000D02*
X789500D01*
X713500Y424432D02*
Y426000D01*
X787000Y381015D02*
Y392985D01*
X790515Y377500D02*
X803472D01*
X787000Y381015D02*
X790515Y377500D01*
Y396500D02*
X803472D01*
X787000Y392985D02*
X790515Y396500D01*
X282000Y296500D02*
X295000D01*
X830528Y396500D02*
X839500D01*
X845000Y365000D02*
Y391000D01*
X592739Y349761D02*
Y358511D01*
X586800Y364450D02*
X592739Y358511D01*
X258000Y296500D02*
X282000D01*
X254499Y292999D02*
X258000Y296500D01*
X252050Y365500D02*
X267500D01*
X295000Y338000D01*
X296500D01*
X252050Y311500D02*
X282000D01*
X296500Y311500D02*
Y323000D01*
X322000Y304500D02*
Y309500D01*
X314000Y296500D02*
X322000Y304500D01*
X296500Y296500D02*
X314000D01*
X315500Y335000D02*
Y348500D01*
X295000Y296500D02*
X296500D01*
X295000Y296500D02*
X295000Y296500D01*
X315500Y316000D02*
X322000Y309500D01*
X315500Y316000D02*
Y335000D01*
X292000Y86271D02*
Y91000D01*
X282747Y77018D02*
X292000Y86271D01*
X282000Y77018D02*
X282747D01*
X292000Y91000D02*
X295500Y94500D01*
X307500D01*
X309500Y21500D02*
X463000D01*
X480000Y38500D01*
X163000Y26000D02*
X169500Y19500D01*
X163000Y26000D02*
Y42000D01*
X694500Y432485D02*
X698015Y436000D01*
X709985D01*
X713500Y432485D01*
X694500Y425000D02*
Y432485D01*
X794250Y454972D02*
X812000D01*
X794250Y454972D02*
X794250Y454972D01*
X828028Y377500D02*
X830528D01*
X812000Y452472D02*
Y454972D01*
Y452472D02*
X817500Y446972D01*
Y388028D02*
X828028Y377500D01*
X817500Y388028D02*
Y446972D01*
X794250Y440000D02*
Y454972D01*
X713500Y424432D02*
Y432485D01*
X794250Y440000D02*
X794386Y439864D01*
Y430886D02*
Y439864D01*
X677000Y393500D02*
X694500Y411000D01*
Y424432D01*
X297000Y34000D02*
X309500Y21500D01*
X297000Y34000D02*
Y35500D01*
X282000Y48982D02*
Y49728D01*
Y48982D02*
X282000Y48982D01*
Y35500D02*
Y48982D01*
X805972Y375000D02*
X816352Y364620D01*
X805972Y375000D02*
Y377500D01*
X816352Y362648D02*
Y364620D01*
Y362648D02*
X817500Y361500D01*
X713500Y466750D02*
X713750Y467000D01*
X713500Y450432D02*
Y466750D01*
X839500Y396500D02*
X845000Y391000D01*
X831000Y396500D02*
Y454972D01*
X812000Y473015D02*
X815515Y469500D01*
X827485D01*
X812000Y473015D02*
Y482264D01*
X831000Y473015D02*
Y527624D01*
X827485Y469500D02*
X831000Y473015D01*
Y527624D02*
X834606Y531230D01*
Y535040D01*
X823497Y502027D02*
X827524Y498000D01*
X794250Y482500D02*
X794486Y482264D01*
X812000D01*
X640900Y409000D02*
X641500Y408400D01*
X612000Y409000D02*
X640900D01*
X581000Y111000D02*
X639600D01*
X609700Y86300D02*
X610400Y85600D01*
X581000Y87000D02*
X581700Y86300D01*
X609700D01*
X634750Y389850D02*
X641500Y383100D01*
X613150Y389850D02*
X634750D01*
X612000Y391000D02*
X613150Y389850D01*
X675000Y467000D02*
Y481000D01*
Y450432D02*
Y467000D01*
X671500Y534500D02*
Y536000D01*
Y534500D02*
X675000Y531000D01*
X641500Y535400D02*
X642100Y536000D01*
X670000D01*
X675000Y481000D02*
Y531000D01*
Y450432D02*
X694500D01*
X586800Y554000D02*
X593550Y560750D01*
X647750Y163250D02*
X649000Y162000D01*
X647750Y163250D02*
Y203356D01*
X638000Y213106D02*
X647750Y203356D01*
X638000Y213106D02*
Y215000D01*
X593550Y560750D02*
Y574550D01*
X600000Y581000D01*
X610400Y136400D02*
X655400D01*
X659000Y213106D02*
Y215000D01*
Y213106D02*
X665000Y207106D01*
X655400Y136400D02*
X665000Y146000D01*
Y207106D01*
X618950Y561150D02*
Y565950D01*
X636000Y583000D01*
X612200Y554400D02*
X618950Y561150D01*
X460000Y588000D02*
X461500Y586500D01*
X500000D01*
X459800Y554000D02*
X460000Y554200D01*
X670000Y551000D02*
X672000D01*
X685000Y564000D01*
X500000Y601500D02*
X516000D01*
X234000Y499500D02*
X264000D01*
X216500D02*
X219000D01*
X218500Y538500D02*
Y540000D01*
X210550Y546450D02*
X217000Y540000D01*
X166205Y548100D02*
X167855Y546450D01*
X210550D01*
X217000Y540000D02*
X218500D01*
X233500Y538500D02*
X264000D01*
X234500Y576500D02*
X264000D01*
X189000Y575000D02*
X219500D01*
Y576500D01*
X179600Y524400D02*
X182950Y521050D01*
X194950D02*
X216500Y499500D01*
X182950Y521050D02*
X194950D01*
X184500Y421000D02*
X186500Y423000D01*
X183350Y419000D02*
X184500Y420150D01*
X186500Y423000D02*
X189000D01*
X184500Y420150D02*
Y421000D01*
X168865Y419000D02*
X183350D01*
X186500Y423000D02*
X189000D01*
X141000Y448000D02*
X143000Y450000D01*
X157500D01*
X158745Y451245D01*
X169620D01*
X184500Y436365D01*
Y425000D02*
Y436365D01*
Y425000D02*
X186500Y423000D01*
X141000Y550000D02*
X142900Y548100D01*
X166205D01*
D104*
X370500Y377830D02*
Y403230D01*
Y515030D02*
Y540430D01*
X409000Y364450D02*
X434400D01*
X459800D01*
X485200D01*
X370500Y489630D02*
Y515030D01*
X88000Y87930D02*
X90493Y85437D01*
X102563D01*
X129000Y59000D01*
Y42000D02*
Y59000D01*
X79995Y111505D02*
X85507D01*
X88000Y109012D01*
X64500Y127000D02*
X79995Y111505D01*
X64500Y127000D02*
Y205000D01*
X117750Y258250D01*
X88000Y87930D02*
Y98471D01*
Y109012D01*
X117750Y258250D02*
Y316500D01*
Y382200D01*
Y316500D02*
X160000D01*
X161500Y318000D01*
X88000Y181529D02*
Y184894D01*
X90493Y187387D01*
X117750D02*
X201507D01*
X90493D02*
X117750D01*
Y229800D01*
X201507Y187387D02*
X204000Y184894D01*
X159168Y271218D02*
Y283668D01*
X117750Y229800D02*
X159168Y271218D01*
Y283668D02*
X161500Y286000D01*
X204000Y181529D02*
Y184894D01*
X509000Y66500D02*
X528300Y47200D01*
Y41000D02*
X530800Y38500D01*
X528300Y41000D02*
Y47200D01*
X273000Y130500D02*
X273000Y130500D01*
X269600Y133000D02*
X272100Y130500D01*
X269600Y133000D02*
Y133900D01*
X204000Y181529D02*
X221971D01*
X272100Y130500D02*
X273000D01*
X221971Y181529D02*
X269600Y133900D01*
X273000Y130500D02*
X302000D01*
X307500D01*
X396500Y66500D02*
X509000D01*
X332500Y130500D02*
X396500Y66500D01*
X307500Y130500D02*
X332500D01*
X204000Y98471D02*
X204029Y98500D01*
X273000D01*
X169500Y19500D02*
X186000D01*
X163000Y59000D02*
X167500Y63500D01*
X163000Y42000D02*
Y59000D01*
X204000Y87930D02*
Y98471D01*
X167500Y63500D02*
X169029D01*
X190966Y85437D01*
X201507D02*
X204000Y87930D01*
X190966Y85437D02*
X201507D01*
X460000Y554200D02*
Y588000D01*
D105*
X421700Y554000D02*
Y564300D01*
X410000Y576000D02*
X421700Y564300D01*
X441000Y596500D02*
X459500Y615000D01*
X441000Y589000D02*
Y596500D01*
X459500Y615000D02*
X794524D01*
X823497Y510973D02*
X826524Y514000D01*
X794524Y615000D02*
X812000Y597524D01*
X440000Y588000D02*
X441000Y589000D01*
D106*
X233000Y311500D02*
D03*
D107*
X295150Y257500D02*
D03*
X303150D02*
D03*
X295150Y232500D02*
D03*
X303150D02*
D03*
X252500Y342500D02*
D03*
Y334500D02*
D03*
X239500Y342500D02*
D03*
Y334500D02*
D03*
X226500Y342500D02*
D03*
Y334500D02*
D03*
X213500Y342500D02*
D03*
Y334500D02*
D03*
X246000Y338500D02*
D03*
X233000D02*
D03*
X220000D02*
D03*
X246000Y330500D02*
D03*
X233000D02*
D03*
X220000D02*
D03*
X252500Y326500D02*
D03*
X239500D02*
D03*
X226500D02*
D03*
X213500D02*
D03*
X246000Y346500D02*
D03*
X233000D02*
D03*
X220000D02*
D03*
X252500Y350500D02*
D03*
X239500D02*
D03*
X226500D02*
D03*
X213500D02*
D03*
D108*
X54250Y382200D02*
D03*
X117750D02*
D03*
Y229800D02*
D03*
D109*
X54250D02*
D03*
D110*
X420000Y245000D02*
D03*
D111*
X354000Y457000D02*
D03*
X272500Y436500D02*
D03*
X263500Y433500D02*
D03*
X315000Y418500D02*
D03*
X424843Y269178D02*
D03*
X435664Y263992D02*
D03*
X442770Y254322D02*
D03*
X444479Y242444D02*
D03*
X440393Y231161D02*
D03*
X431429Y223184D02*
D03*
X419758Y220392D02*
D03*
X408149Y223428D02*
D03*
X396695Y227008D02*
D03*
X372758Y228426D02*
D03*
X360500Y228500D02*
D03*
X369744Y261353D02*
D03*
X381668Y262695D02*
D03*
X393665Y262992D02*
D03*
X405513Y264896D02*
D03*
X348320Y262837D02*
D03*
X329235Y227008D02*
D03*
X317257Y227729D02*
D03*
X323629Y262737D02*
D03*
X335626Y262992D02*
D03*
X255790Y271752D02*
D03*
X265869Y265240D02*
D03*
X277570Y262580D02*
D03*
X277916Y227384D02*
D03*
X265917Y227277D02*
D03*
X254291Y230252D02*
D03*
X244152Y236670D02*
D03*
X236509Y245921D02*
D03*
X225819Y255030D02*
D03*
X219209Y265045D02*
D03*
X255177Y435337D02*
D03*
X261953Y401437D02*
D03*
X250532Y397754D02*
D03*
X245061Y387074D02*
D03*
X212809Y404220D02*
D03*
X218452Y414810D02*
D03*
X226044Y424103D02*
D03*
X235846Y431025D02*
D03*
X392298Y446716D02*
D03*
X392753Y434725D02*
D03*
X392588Y422726D02*
D03*
X350680Y416870D02*
D03*
X339358Y420845D02*
D03*
X332847Y450020D02*
D03*
X343643Y455259D02*
D03*
X301338Y408821D02*
D03*
X291939Y401361D02*
D03*
X280019Y399983D02*
D03*
X327969Y419033D02*
D03*
X288514Y445986D02*
D03*
X297943Y453409D02*
D03*
X309597Y456270D02*
D03*
X341500Y225500D02*
D03*
X292500Y223000D02*
D03*
X304758Y222926D02*
D03*
X298500Y265500D02*
D03*
X310758Y265426D02*
D03*
X210500Y273000D02*
D03*
X206500Y286500D02*
D03*
X212000Y298000D02*
D03*
X202000Y394000D02*
D03*
X201000Y326500D02*
D03*
Y338000D02*
D03*
Y350000D02*
D03*
X268000Y336000D02*
D03*
X245000Y435500D02*
D03*
X414500Y270500D02*
D03*
X385500Y223000D02*
D03*
X201000Y363500D02*
D03*
D112*
X35000Y35000D02*
D03*
Y575000D02*
D03*
X725000Y35000D02*
D03*
Y520000D02*
D03*
D113*
X410000Y576000D02*
D03*
X581000Y111000D02*
D03*
Y87000D02*
D03*
X612000Y391000D02*
D03*
X600000Y583000D02*
D03*
X638000Y215000D02*
D03*
X659000D02*
D03*
X636000Y583000D02*
D03*
D114*
X26000Y446000D02*
D03*
X621000Y236000D02*
D03*
X288500Y551000D02*
D03*
X78500D02*
D03*
X498500Y411000D02*
D03*
X743500Y481000D02*
D03*
X148500D02*
D03*
X131000Y586000D02*
D03*
X358500Y201000D02*
D03*
X183500Y271000D02*
D03*
X813500D02*
D03*
X96000Y376000D02*
D03*
X411000Y166000D02*
D03*
X78500Y341000D02*
D03*
X26000Y516000D02*
D03*
X148500Y411000D02*
D03*
X778500Y131000D02*
D03*
X411000Y96000D02*
D03*
X113500Y411000D02*
D03*
X96000Y516000D02*
D03*
X341000Y96000D02*
D03*
X708500Y131000D02*
D03*
X568500Y481000D02*
D03*
X341000Y306000D02*
D03*
X568500Y131000D02*
D03*
X218500Y481000D02*
D03*
X813500Y131000D02*
D03*
X463500D02*
D03*
X218500D02*
D03*
X463500Y481000D02*
D03*
X568500Y201000D02*
D03*
X481000Y166000D02*
D03*
X131000Y516000D02*
D03*
X78500Y271000D02*
D03*
X148500Y621000D02*
D03*
X253500D02*
D03*
X323500Y61000D02*
D03*
X691000Y96000D02*
D03*
X551000D02*
D03*
X761000Y166000D02*
D03*
X778500Y551000D02*
D03*
X393500Y481000D02*
D03*
X621000Y446000D02*
D03*
X43500Y271000D02*
D03*
X306000Y376000D02*
D03*
X446000Y516000D02*
D03*
X306000Y586000D02*
D03*
X481000Y306000D02*
D03*
X166000Y96000D02*
D03*
X393500Y411000D02*
D03*
X481000Y516000D02*
D03*
X848500Y551000D02*
D03*
X43500Y481000D02*
D03*
X848500Y271000D02*
D03*
X148500Y131000D02*
D03*
X411000Y446000D02*
D03*
X761000Y586000D02*
D03*
X498500Y201000D02*
D03*
X323500Y621000D02*
D03*
X271000Y166000D02*
D03*
X341000Y586000D02*
D03*
X201000Y306000D02*
D03*
X306000Y166000D02*
D03*
X726000Y236000D02*
D03*
X778500Y201000D02*
D03*
X96000Y586000D02*
D03*
X516000Y96000D02*
D03*
X96000Y306000D02*
D03*
X463500Y271000D02*
D03*
X656000Y586000D02*
D03*
X813500Y61000D02*
D03*
X708500Y481000D02*
D03*
X551000Y306000D02*
D03*
X43500Y411000D02*
D03*
X446000Y446000D02*
D03*
X743500Y201000D02*
D03*
X131000Y96000D02*
D03*
X411000Y306000D02*
D03*
X796000Y26000D02*
D03*
X288500Y621000D02*
D03*
X586000Y446000D02*
D03*
X708500Y271000D02*
D03*
X761000Y236000D02*
D03*
X848500Y131000D02*
D03*
X201000Y446000D02*
D03*
X288500Y201000D02*
D03*
X183500Y131000D02*
D03*
X341000Y166000D02*
D03*
X726000Y586000D02*
D03*
X673500Y411000D02*
D03*
X183500Y341000D02*
D03*
X551000Y586000D02*
D03*
X848500Y61000D02*
D03*
X463500Y411000D02*
D03*
X43500Y201000D02*
D03*
X61000Y96000D02*
D03*
X726000Y306000D02*
D03*
X236000Y446000D02*
D03*
X778500Y61000D02*
D03*
X113500Y131000D02*
D03*
X428500Y201000D02*
D03*
X393500Y621000D02*
D03*
X516000Y236000D02*
D03*
X498500Y481000D02*
D03*
X568500Y411000D02*
D03*
X61000Y516000D02*
D03*
X113500Y551000D02*
D03*
X516000Y166000D02*
D03*
X621000Y306000D02*
D03*
X446000D02*
D03*
X323500Y201000D02*
D03*
X813500D02*
D03*
X78500Y481000D02*
D03*
X43500Y341000D02*
D03*
X691000Y236000D02*
D03*
X831000Y26000D02*
D03*
X463500Y201000D02*
D03*
X201000Y236000D02*
D03*
X113500Y621000D02*
D03*
X516000Y306000D02*
D03*
X376000Y166000D02*
D03*
X848500Y481000D02*
D03*
X148500Y341000D02*
D03*
X26000Y96000D02*
D03*
X253500Y551000D02*
D03*
X288500Y271000D02*
D03*
X376000Y586000D02*
D03*
X796000Y96000D02*
D03*
X568500Y271000D02*
D03*
X481000Y96000D02*
D03*
X218500Y621000D02*
D03*
X848500Y341000D02*
D03*
X673500Y61000D02*
D03*
X831000Y306000D02*
D03*
X113500Y481000D02*
D03*
X428500Y411000D02*
D03*
X691000Y306000D02*
D03*
X551000Y26000D02*
D03*
X131000Y166000D02*
D03*
X166000Y376000D02*
D03*
X78500Y61000D02*
D03*
X848500Y201000D02*
D03*
X323500Y551000D02*
D03*
X603500Y481000D02*
D03*
X358500Y621000D02*
D03*
X78500D02*
D03*
X516000Y446000D02*
D03*
X498500Y131000D02*
D03*
X796000Y306000D02*
D03*
X166000Y166000D02*
D03*
X428500Y621000D02*
D03*
X533500Y131000D02*
D03*
X761000Y376000D02*
D03*
X358500Y271000D02*
D03*
X166000Y236000D02*
D03*
X813500Y551000D02*
D03*
X743500Y411000D02*
D03*
X148500Y201000D02*
D03*
X551000Y236000D02*
D03*
X26000D02*
D03*
X691000Y166000D02*
D03*
X796000D02*
D03*
X481000Y236000D02*
D03*
X43500Y131000D02*
D03*
X341000Y516000D02*
D03*
X743500Y271000D02*
D03*
X831000Y236000D02*
D03*
X743500Y131000D02*
D03*
X533500Y201000D02*
D03*
X183500D02*
D03*
X831000Y96000D02*
D03*
X621000Y586000D02*
D03*
X61000Y446000D02*
D03*
X551000Y166000D02*
D03*
X498500Y271000D02*
D03*
X26000Y166000D02*
D03*
X726000D02*
D03*
X831000D02*
D03*
X78500Y411000D02*
D03*
X358500Y61000D02*
D03*
X271000Y446000D02*
D03*
X761000D02*
D03*
X778500Y271000D02*
D03*
X726000Y96000D02*
D03*
X26000Y376000D02*
D03*
X761000Y306000D02*
D03*
X446000Y166000D02*
D03*
X533500Y271000D02*
D03*
Y411000D02*
D03*
X341000Y376000D02*
D03*
X691000D02*
D03*
X761000Y96000D02*
D03*
X61000Y306000D02*
D03*
X446000Y96000D02*
D03*
X551000Y446000D02*
D03*
X796000Y236000D02*
D03*
X253500Y201000D02*
D03*
X26000Y306000D02*
D03*
X43500Y621000D02*
D03*
X393500Y201000D02*
D03*
X236000Y516000D02*
D03*
X428500Y131000D02*
D03*
X708500Y201000D02*
D03*
X201000Y376000D02*
D03*
X323500Y481000D02*
D03*
X96000Y26000D02*
D03*
X183500Y621000D02*
D03*
X96000Y446000D02*
D03*
X196000Y42500D02*
D03*
X224000Y67500D02*
D03*
D115*
X818000Y330000D02*
D03*
X186000Y19500D02*
D03*
X677000Y393500D02*
D03*
X817500Y361500D02*
D03*
X612000Y409000D02*
D03*
X534000Y511000D02*
D03*
X499000Y524000D02*
D03*
X304000Y490000D02*
D03*
Y529000D02*
D03*
M02*
