G04*
G04 #@! TF.GenerationSoftware,Altium Limited,Altium Designer,26.2.0 (7)*
G04*
G04 Layer_Color=16711935*
%FSLAX44Y44*%
%MOMM*%
G71*
G04*
G04 #@! TF.SameCoordinates,3000B54D-F0EF-4365-8219-05E713EDAB24*
G04*
G04*
G04 #@! TF.FilePolarity,Negative*
G04*
G01*
G75*
%ADD71R,1.1032X0.8032*%
%ADD72R,1.0532X1.0532*%
%ADD89C,0.7032*%
%ADD90C,1.5000*%
%ADD91C,2.0320*%
%ADD92R,2.0320X2.0320*%
%ADD93R,1.5000X1.5000*%
%ADD95C,1.7800*%
%ADD96C,1.0032*%
%ADD97C,6.7032*%
%ADD98C,1.5032*%
%ADD99C,0.9032*%
%ADD100C,1.7032*%
%ADD101C,1.4032*%
D71*
X837647Y392500D02*
D03*
Y377500D02*
D03*
X246000Y14500D02*
D03*
X304000D02*
D03*
X246000Y29500D02*
D03*
X304000D02*
D03*
D72*
X837500Y406000D02*
D03*
Y420000D02*
D03*
X289000Y14500D02*
D03*
X261000D02*
D03*
X289000Y28500D02*
D03*
X261000D02*
D03*
D89*
X295150Y257500D02*
D03*
X303150D02*
D03*
X295150Y232500D02*
D03*
X303150D02*
D03*
X252500Y342500D02*
D03*
Y334500D02*
D03*
X239500Y342500D02*
D03*
Y334500D02*
D03*
X226500Y342500D02*
D03*
Y334500D02*
D03*
X213500Y342500D02*
D03*
Y334500D02*
D03*
X246000Y338500D02*
D03*
X233000D02*
D03*
X220000D02*
D03*
X246000Y330500D02*
D03*
X233000D02*
D03*
X220000D02*
D03*
X252500Y326500D02*
D03*
X239500D02*
D03*
X226500D02*
D03*
X213500D02*
D03*
X246000Y346500D02*
D03*
X233000D02*
D03*
X220000D02*
D03*
X252500Y350500D02*
D03*
X239500D02*
D03*
X226500D02*
D03*
X213500D02*
D03*
D90*
X378400Y38500D02*
D03*
X480000D02*
D03*
X429200D02*
D03*
X353000D02*
D03*
X505400D02*
D03*
X403800D02*
D03*
D91*
X54250Y382200D02*
D03*
X117750D02*
D03*
Y229800D02*
D03*
D92*
X54250D02*
D03*
D93*
X530800Y38500D02*
D03*
D95*
X625000Y174500D02*
D03*
Y47500D02*
D03*
X165000Y562500D02*
D03*
Y435500D02*
D03*
D96*
X354000Y457000D02*
D03*
X272500Y436500D02*
D03*
X263500Y433500D02*
D03*
X315000Y418500D02*
D03*
X424843Y269178D02*
D03*
X435664Y263992D02*
D03*
X442770Y254322D02*
D03*
X444479Y242444D02*
D03*
X440393Y231161D02*
D03*
X431429Y223184D02*
D03*
X419758Y220392D02*
D03*
X408149Y223428D02*
D03*
X396695Y227008D02*
D03*
X372758Y228426D02*
D03*
X360500Y228500D02*
D03*
X369744Y261353D02*
D03*
X381668Y262695D02*
D03*
X393665Y262992D02*
D03*
X405513Y264896D02*
D03*
X348320Y262837D02*
D03*
X329235Y227008D02*
D03*
X317257Y227729D02*
D03*
X323629Y262737D02*
D03*
X335626Y262992D02*
D03*
X255790Y271752D02*
D03*
X265869Y265240D02*
D03*
X277570Y262580D02*
D03*
X277916Y227384D02*
D03*
X265917Y227277D02*
D03*
X254291Y230252D02*
D03*
X244152Y236670D02*
D03*
X236509Y245921D02*
D03*
X225819Y255030D02*
D03*
X219209Y265045D02*
D03*
X255177Y435337D02*
D03*
X261953Y401437D02*
D03*
X250532Y397754D02*
D03*
X245061Y387074D02*
D03*
X212809Y404220D02*
D03*
X218452Y414810D02*
D03*
X226044Y424103D02*
D03*
X235846Y431025D02*
D03*
X392298Y446716D02*
D03*
X392753Y434725D02*
D03*
X392588Y422726D02*
D03*
X350680Y416870D02*
D03*
X339358Y420845D02*
D03*
X332847Y450020D02*
D03*
X343643Y455259D02*
D03*
X301338Y408821D02*
D03*
X291939Y401361D02*
D03*
X280019Y399983D02*
D03*
X327969Y419033D02*
D03*
X288514Y445986D02*
D03*
X297943Y453409D02*
D03*
X309597Y456270D02*
D03*
X341500Y225500D02*
D03*
X292500Y223000D02*
D03*
X304758Y222926D02*
D03*
X298500Y265500D02*
D03*
X310758Y265426D02*
D03*
X210500Y273000D02*
D03*
X206500Y286500D02*
D03*
X212000Y298000D02*
D03*
X202000Y394000D02*
D03*
X201000Y326500D02*
D03*
Y338000D02*
D03*
Y350000D02*
D03*
X268000Y336000D02*
D03*
X245000Y435500D02*
D03*
X414500Y270500D02*
D03*
X385500Y223000D02*
D03*
X201000Y363500D02*
D03*
D97*
X35000Y35000D02*
D03*
Y575000D02*
D03*
X725000Y35000D02*
D03*
Y520000D02*
D03*
D98*
X410000Y576000D02*
D03*
X581000Y111000D02*
D03*
Y87000D02*
D03*
X612000Y391000D02*
D03*
X600000Y583000D02*
D03*
X638000Y215000D02*
D03*
X659000D02*
D03*
X636000Y583000D02*
D03*
D99*
X26000Y446000D02*
D03*
X621000Y236000D02*
D03*
X288500Y551000D02*
D03*
X78500D02*
D03*
X498500Y411000D02*
D03*
X743500Y481000D02*
D03*
X148500D02*
D03*
X131000Y586000D02*
D03*
X358500Y201000D02*
D03*
X183500Y271000D02*
D03*
X813500D02*
D03*
X96000Y376000D02*
D03*
X411000Y166000D02*
D03*
X78500Y341000D02*
D03*
X26000Y516000D02*
D03*
X148500Y411000D02*
D03*
X778500Y131000D02*
D03*
X411000Y96000D02*
D03*
X113500Y411000D02*
D03*
X96000Y516000D02*
D03*
X341000Y96000D02*
D03*
X708500Y131000D02*
D03*
X568500Y481000D02*
D03*
X341000Y306000D02*
D03*
X568500Y131000D02*
D03*
X218500Y481000D02*
D03*
X813500Y131000D02*
D03*
X463500D02*
D03*
X218500D02*
D03*
X463500Y481000D02*
D03*
X568500Y201000D02*
D03*
X481000Y166000D02*
D03*
X131000Y516000D02*
D03*
X78500Y271000D02*
D03*
X148500Y621000D02*
D03*
X253500D02*
D03*
X323500Y61000D02*
D03*
X691000Y96000D02*
D03*
X551000D02*
D03*
X761000Y166000D02*
D03*
X778500Y551000D02*
D03*
X393500Y481000D02*
D03*
X621000Y446000D02*
D03*
X43500Y271000D02*
D03*
X306000Y376000D02*
D03*
X446000Y516000D02*
D03*
X306000Y586000D02*
D03*
X481000Y306000D02*
D03*
X166000Y96000D02*
D03*
X393500Y411000D02*
D03*
X481000Y516000D02*
D03*
X848500Y551000D02*
D03*
X43500Y481000D02*
D03*
X848500Y271000D02*
D03*
X148500Y131000D02*
D03*
X411000Y446000D02*
D03*
X761000Y586000D02*
D03*
X498500Y201000D02*
D03*
X323500Y621000D02*
D03*
X271000Y166000D02*
D03*
X341000Y586000D02*
D03*
X201000Y306000D02*
D03*
X306000Y166000D02*
D03*
X726000Y236000D02*
D03*
X778500Y201000D02*
D03*
X96000Y586000D02*
D03*
X516000Y96000D02*
D03*
X96000Y306000D02*
D03*
X463500Y271000D02*
D03*
X656000Y586000D02*
D03*
X813500Y61000D02*
D03*
X708500Y481000D02*
D03*
X551000Y306000D02*
D03*
X43500Y411000D02*
D03*
X446000Y446000D02*
D03*
X743500Y201000D02*
D03*
X131000Y96000D02*
D03*
X411000Y306000D02*
D03*
X796000Y26000D02*
D03*
X288500Y621000D02*
D03*
X586000Y446000D02*
D03*
X708500Y271000D02*
D03*
X761000Y236000D02*
D03*
X848500Y131000D02*
D03*
X201000Y446000D02*
D03*
X288500Y201000D02*
D03*
X183500Y131000D02*
D03*
X341000Y166000D02*
D03*
X726000Y586000D02*
D03*
X673500Y411000D02*
D03*
X183500Y341000D02*
D03*
X551000Y586000D02*
D03*
X848500Y61000D02*
D03*
X463500Y411000D02*
D03*
X43500Y201000D02*
D03*
X61000Y96000D02*
D03*
X726000Y306000D02*
D03*
X236000Y446000D02*
D03*
X778500Y61000D02*
D03*
X113500Y131000D02*
D03*
X428500Y201000D02*
D03*
X393500Y621000D02*
D03*
X516000Y236000D02*
D03*
X498500Y481000D02*
D03*
X568500Y411000D02*
D03*
X61000Y516000D02*
D03*
X113500Y551000D02*
D03*
X516000Y166000D02*
D03*
X621000Y306000D02*
D03*
X446000D02*
D03*
X323500Y201000D02*
D03*
X813500D02*
D03*
X78500Y481000D02*
D03*
X43500Y341000D02*
D03*
X691000Y236000D02*
D03*
X831000Y26000D02*
D03*
X463500Y201000D02*
D03*
X201000Y236000D02*
D03*
X113500Y621000D02*
D03*
X516000Y306000D02*
D03*
X376000Y166000D02*
D03*
X848500Y481000D02*
D03*
X148500Y341000D02*
D03*
X26000Y96000D02*
D03*
X253500Y551000D02*
D03*
X288500Y271000D02*
D03*
X376000Y586000D02*
D03*
X796000Y96000D02*
D03*
X568500Y271000D02*
D03*
X481000Y96000D02*
D03*
X218500Y621000D02*
D03*
X848500Y341000D02*
D03*
X673500Y61000D02*
D03*
X831000Y306000D02*
D03*
X113500Y481000D02*
D03*
X428500Y411000D02*
D03*
X691000Y306000D02*
D03*
X551000Y26000D02*
D03*
X131000Y166000D02*
D03*
X166000Y376000D02*
D03*
X78500Y61000D02*
D03*
X848500Y201000D02*
D03*
X323500Y551000D02*
D03*
X603500Y481000D02*
D03*
X358500Y621000D02*
D03*
X78500D02*
D03*
X516000Y446000D02*
D03*
X498500Y131000D02*
D03*
X796000Y306000D02*
D03*
X166000Y166000D02*
D03*
X428500Y621000D02*
D03*
X533500Y131000D02*
D03*
X761000Y376000D02*
D03*
X358500Y271000D02*
D03*
X166000Y236000D02*
D03*
X813500Y551000D02*
D03*
X743500Y411000D02*
D03*
X148500Y201000D02*
D03*
X551000Y236000D02*
D03*
X26000D02*
D03*
X691000Y166000D02*
D03*
X796000D02*
D03*
X481000Y236000D02*
D03*
X43500Y131000D02*
D03*
X341000Y516000D02*
D03*
X743500Y271000D02*
D03*
X831000Y236000D02*
D03*
X743500Y131000D02*
D03*
X533500Y201000D02*
D03*
X183500D02*
D03*
X831000Y96000D02*
D03*
X621000Y586000D02*
D03*
X61000Y446000D02*
D03*
X551000Y166000D02*
D03*
X498500Y271000D02*
D03*
X26000Y166000D02*
D03*
X726000D02*
D03*
X831000D02*
D03*
X78500Y411000D02*
D03*
X358500Y61000D02*
D03*
X271000Y446000D02*
D03*
X761000D02*
D03*
X778500Y271000D02*
D03*
X726000Y96000D02*
D03*
X26000Y376000D02*
D03*
X761000Y306000D02*
D03*
X446000Y166000D02*
D03*
X533500Y271000D02*
D03*
Y411000D02*
D03*
X341000Y376000D02*
D03*
X691000D02*
D03*
X761000Y96000D02*
D03*
X61000Y306000D02*
D03*
X446000Y96000D02*
D03*
X551000Y446000D02*
D03*
X796000Y236000D02*
D03*
X253500Y201000D02*
D03*
X26000Y306000D02*
D03*
X43500Y621000D02*
D03*
X393500Y201000D02*
D03*
X236000Y516000D02*
D03*
X428500Y131000D02*
D03*
X708500Y201000D02*
D03*
X201000Y376000D02*
D03*
X323500Y481000D02*
D03*
X96000Y26000D02*
D03*
X183500Y621000D02*
D03*
X96000Y446000D02*
D03*
X196000Y42500D02*
D03*
X224000Y67500D02*
D03*
D100*
X255500Y57000D02*
D03*
D101*
X420000Y245000D02*
D03*
X818000Y330000D02*
D03*
X186000Y19500D02*
D03*
X677000Y393500D02*
D03*
X817500Y361500D02*
D03*
X612000Y409000D02*
D03*
X534000Y511000D02*
D03*
X499000Y524000D02*
D03*
X304000Y490000D02*
D03*
Y529000D02*
D03*
M02*
