G04*
G04 #@! TF.GenerationSoftware,Altium Limited,Altium Designer,26.2.0 (7)*
G04*
G04 Layer_Color=8421504*
%FSLAX44Y44*%
%MOMM*%
G71*
G04*
G04 #@! TF.SameCoordinates,3000B54D-F0EF-4365-8219-05E713EDAB24*
G04*
G04*
G04 #@! TF.FilePolarity,Positive*
G04*
G01*
G75*
%ADD20R,1.7500X0.9900*%
%ADD21R,0.9900X0.6100*%
G04:AMPARAMS|DCode=22|XSize=1.55mm|YSize=0.6mm|CornerRadius=0.015mm|HoleSize=0mm|Usage=FLASHONLY|Rotation=270.000|XOffset=0mm|YOffset=0mm|HoleType=Round|Shape=RoundedRectangle|*
%AMROUNDEDRECTD22*
21,1,1.5500,0.5700,0,0,270.0*
21,1,1.5200,0.6000,0,0,270.0*
1,1,0.0300,-0.2850,-0.7600*
1,1,0.0300,-0.2850,0.7600*
1,1,0.0300,0.2850,0.7600*
1,1,0.0300,0.2850,-0.7600*
%
%ADD22ROUNDEDRECTD22*%
%ADD23R,0.7000X0.9500*%
%ADD24R,2.0000X3.0000*%
%ADD25R,1.1000X0.6000*%
%ADD26R,1.9500X2.0300*%
%ADD27R,2.0300X1.9500*%
%ADD28R,0.6000X1.1000*%
%ADD29R,1.2954X0.9144*%
%ADD30R,1.2954X0.5334*%
%ADD31R,1.3462X1.2696*%
%ADD32R,1.4053X2.3000*%
%ADD33R,0.6000X0.6000*%
%ADD34R,0.9500X0.7000*%
%ADD35R,3.4300X1.2700*%
%ADD36R,0.9000X0.6000*%
%ADD37R,0.8500X0.8500*%
%ADD38R,0.9000X0.7000*%
%ADD39R,1.5000X1.0000*%
%ADD40R,1.5000X1.6800*%
%ADD41R,0.9398X1.7018*%
%ADD42R,0.6000X0.6000*%
%ADD43R,1.6800X1.5000*%
%ADD44R,1.9000X5.3000*%
%ADD45R,1.4986X3.6068*%
%ADD46R,2.6000X1.5000*%
%ADD47R,6.6040X7.3152*%
%ADD48R,0.8500X0.8500*%
%ADD49R,0.6000X0.9000*%
%ADD50R,0.6000X0.7493*%
%ADD51R,1.0000X1.2500*%
G04:AMPARAMS|DCode=52|XSize=0.7mm|YSize=0.95mm|CornerRadius=0mm|HoleSize=0mm|Usage=FLASHONLY|Rotation=315.000|XOffset=0mm|YOffset=0mm|HoleType=Round|Shape=Rectangle|*
%AMROTATEDRECTD52*
4,1,4,-0.5834,-0.0884,0.0884,0.5834,0.5834,0.0884,-0.0884,-0.5834,-0.5834,-0.0884,0.0*
%
%ADD52ROTATEDRECTD52*%

G36*
X593250Y28450D02*
Y41150D01*
X614000D01*
X614300Y40660D01*
X614590Y40220D01*
X614900Y39790D01*
X615230Y39370D01*
X615580Y38970D01*
X615940Y38590D01*
X616320Y38220D01*
X616710Y37860D01*
X617120Y37530D01*
X617540Y37210D01*
X617970Y36900D01*
X618420Y36620D01*
X618880Y36360D01*
X619350Y36110D01*
X619830Y35880D01*
X620320Y35680D01*
X620810Y35500D01*
X621310Y35330D01*
X621820Y35190D01*
X622340Y35070D01*
X622860Y34970D01*
X623380Y34890D01*
X623910Y34840D01*
X624440Y34800D01*
X624970Y34790D01*
X625500Y34800D01*
X626020Y34840D01*
X626550Y34890D01*
X627070Y34970D01*
X627550Y35060D01*
Y28450D01*
X593250D01*
D02*
G37*
G36*
X636000Y53850D02*
X635700Y54340D01*
X635410Y54780D01*
X635100Y55210D01*
X634770Y55630D01*
X634420Y56030D01*
X634060Y56410D01*
X633680Y56780D01*
X633290Y57140D01*
X632880Y57470D01*
X632460Y57790D01*
X632030Y58100D01*
X631580Y58380D01*
X631120Y58640D01*
X630650Y58890D01*
X630170Y59120D01*
X629680Y59320D01*
X629190Y59500D01*
X628690Y59670D01*
X628180Y59810D01*
X627660Y59930D01*
X627140Y60030D01*
X626620Y60110D01*
X626090Y60160D01*
X625560Y60200D01*
X625030Y60210D01*
X624500Y60200D01*
X623980Y60160D01*
X623450Y60110D01*
X622930Y60030D01*
X622450Y59940D01*
Y66550D01*
X656750D01*
Y53850D01*
X636000D01*
D02*
G37*
G36*
X627070Y187030D02*
X626550Y187110D01*
X626020Y187160D01*
X625500Y187200D01*
X624970Y187210D01*
X624440Y187200D01*
X623910Y187160D01*
X623380Y187110D01*
X622860Y187030D01*
X622340Y186930D01*
X621820Y186810D01*
X621310Y186670D01*
X620810Y186500D01*
X620320Y186320D01*
X619830Y186120D01*
X619350Y185890D01*
X618880Y185640D01*
X618420Y185380D01*
X617970Y185100D01*
X617540Y184790D01*
X617120Y184470D01*
X616710Y184140D01*
X616320Y183780D01*
X615940Y183410D01*
X615580Y183030D01*
X615230Y182630D01*
X614900Y182210D01*
X614590Y181780D01*
X614300Y181340D01*
X614000Y180850D01*
X593250D01*
Y193550D01*
X627550D01*
Y186940D01*
X627070Y187030D01*
D02*
G37*
G36*
X622450Y155450D02*
Y162060D01*
X622930Y161970D01*
X623450Y161890D01*
X623980Y161840D01*
X624500Y161800D01*
X625030Y161790D01*
X625560Y161800D01*
X626090Y161840D01*
X626620Y161890D01*
X627140Y161970D01*
X627660Y162070D01*
X628180Y162190D01*
X628690Y162330D01*
X629190Y162500D01*
X629680Y162680D01*
X630170Y162880D01*
X630650Y163110D01*
X631120Y163360D01*
X631580Y163620D01*
X632030Y163900D01*
X632460Y164210D01*
X632880Y164530D01*
X633290Y164860D01*
X633680Y165220D01*
X634060Y165590D01*
X634420Y165970D01*
X634770Y166370D01*
X635100Y166790D01*
X635410Y167220D01*
X635700Y167660D01*
X636000Y168150D01*
X656750D01*
Y155450D01*
X622450D01*
D02*
G37*
G36*
X216000Y324950D02*
Y352050D01*
X250000D01*
Y324950D01*
X216000D01*
D02*
G37*
G36*
X162930Y422970D02*
X163450Y422890D01*
X163980Y422840D01*
X164500Y422800D01*
X165030Y422790D01*
X165560Y422800D01*
X166090Y422840D01*
X166620Y422890D01*
X167140Y422970D01*
X167660Y423070D01*
X168180Y423190D01*
X168690Y423330D01*
X169190Y423500D01*
X169680Y423680D01*
X170170Y423880D01*
X170650Y424110D01*
X171120Y424360D01*
X171580Y424620D01*
X172030Y424900D01*
X172460Y425210D01*
X172880Y425530D01*
X173290Y425860D01*
X173680Y426220D01*
X174060Y426590D01*
X174420Y426970D01*
X174770Y427370D01*
X175100Y427790D01*
X175410Y428220D01*
X175700Y428660D01*
X176000Y429150D01*
X196750D01*
Y416450D01*
X162450D01*
Y423060D01*
X162930Y422970D01*
D02*
G37*
G36*
X167550Y454550D02*
Y447940D01*
X167070Y448030D01*
X166550Y448110D01*
X166020Y448160D01*
X165500Y448200D01*
X164970Y448210D01*
X164440Y448200D01*
X163910Y448160D01*
X163380Y448110D01*
X162860Y448030D01*
X162340Y447930D01*
X161820Y447810D01*
X161310Y447670D01*
X160810Y447500D01*
X160320Y447320D01*
X159830Y447120D01*
X159350Y446890D01*
X158880Y446640D01*
X158420Y446380D01*
X157970Y446100D01*
X157540Y445790D01*
X157120Y445470D01*
X156710Y445140D01*
X156320Y444780D01*
X155940Y444410D01*
X155580Y444030D01*
X155230Y443630D01*
X154900Y443210D01*
X154590Y442780D01*
X154300Y442340D01*
X154000Y441850D01*
X133250D01*
Y454550D01*
X167550D01*
D02*
G37*
G36*
X154000Y556150D02*
X154300Y555660D01*
X154590Y555220D01*
X154900Y554790D01*
X155230Y554370D01*
X155580Y553970D01*
X155940Y553590D01*
X156320Y553220D01*
X156710Y552860D01*
X157120Y552530D01*
X157540Y552210D01*
X157970Y551900D01*
X158420Y551620D01*
X158880Y551360D01*
X159350Y551110D01*
X159830Y550880D01*
X160320Y550680D01*
X160810Y550500D01*
X161310Y550330D01*
X161820Y550190D01*
X162340Y550070D01*
X162860Y549970D01*
X163380Y549890D01*
X163910Y549840D01*
X164440Y549800D01*
X164970Y549790D01*
X165500Y549800D01*
X166020Y549840D01*
X166550Y549890D01*
X167070Y549970D01*
X167550Y550060D01*
Y543450D01*
X133250D01*
Y556150D01*
X154000D01*
D02*
G37*
G36*
X196750Y581550D02*
Y568850D01*
X176000D01*
X175700Y569340D01*
X175410Y569780D01*
X175100Y570210D01*
X174770Y570630D01*
X174420Y571030D01*
X174060Y571410D01*
X173680Y571780D01*
X173290Y572140D01*
X172880Y572470D01*
X172460Y572790D01*
X172030Y573100D01*
X171580Y573380D01*
X171120Y573640D01*
X170650Y573890D01*
X170170Y574120D01*
X169680Y574320D01*
X169190Y574500D01*
X168690Y574670D01*
X168180Y574810D01*
X167660Y574930D01*
X167140Y575030D01*
X166620Y575110D01*
X166090Y575160D01*
X165560Y575200D01*
X165030Y575210D01*
X164500Y575200D01*
X163980Y575160D01*
X163450Y575110D01*
X162930Y575030D01*
X162450Y574940D01*
Y581550D01*
X196750D01*
D02*
G37*
D20*
X299150Y255150D02*
D03*
Y234850D02*
D03*
D21*
X317300Y245000D02*
D03*
X281000D02*
D03*
D22*
X252050Y365500D02*
D03*
X239350D02*
D03*
X226650D02*
D03*
X213950D02*
D03*
X226650Y311500D02*
D03*
X239350D02*
D03*
X252050D02*
D03*
X213950D02*
D03*
D23*
X794250Y454972D02*
D03*
X780750D02*
D03*
X794250Y482500D02*
D03*
X780750D02*
D03*
X774000Y409000D02*
D03*
X780750Y440000D02*
D03*
X700250Y467000D02*
D03*
X688500Y467000D02*
D03*
Y481000D02*
D03*
X329000Y335000D02*
D03*
X217250Y285000D02*
D03*
X329000Y348500D02*
D03*
X211500Y385500D02*
D03*
X794250Y440000D02*
D03*
X787500Y409000D02*
D03*
X315500Y335000D02*
D03*
Y348500D02*
D03*
X675000Y481000D02*
D03*
Y467000D02*
D03*
X225000Y385500D02*
D03*
X230750Y285000D02*
D03*
X713750Y467000D02*
D03*
D24*
X780000Y382500D02*
D03*
X735000D02*
D03*
X367500Y307500D02*
D03*
X322500D02*
D03*
D25*
X830528Y396500D02*
D03*
X803472Y377500D02*
D03*
Y396500D02*
D03*
X830528Y377500D02*
D03*
X803472Y387000D02*
D03*
D26*
X409000Y364450D02*
D03*
X434400D02*
D03*
X409000Y554000D02*
D03*
X459800Y364450D02*
D03*
X485200D02*
D03*
X434400Y554000D02*
D03*
X586800Y364450D02*
D03*
X510600D02*
D03*
X536000D02*
D03*
X612200D02*
D03*
X561400D02*
D03*
X459800Y554000D02*
D03*
X485200D02*
D03*
X510600D02*
D03*
X536000D02*
D03*
X561400D02*
D03*
X586800D02*
D03*
X612200D02*
D03*
D27*
X370500Y403230D02*
D03*
Y377830D02*
D03*
Y540430D02*
D03*
Y464230D02*
D03*
Y515030D02*
D03*
Y489630D02*
D03*
Y433730D02*
D03*
X641500Y484600D02*
D03*
Y459200D02*
D03*
Y433800D02*
D03*
Y408400D02*
D03*
Y383100D02*
D03*
Y510000D02*
D03*
Y535400D02*
D03*
D28*
X821500Y482028D02*
D03*
X704000Y424432D02*
D03*
X713500D02*
D03*
X694500D02*
D03*
X812000Y454972D02*
D03*
X831000Y482028D02*
D03*
X812000D02*
D03*
X831000Y454972D02*
D03*
X694500Y450432D02*
D03*
X713500D02*
D03*
D29*
X284713Y435120D02*
D03*
D30*
X305287Y417975D02*
D03*
Y437025D02*
D03*
X284713Y417975D02*
D03*
D31*
X675000Y427568D02*
D03*
Y450432D02*
D03*
D32*
X797503Y506500D02*
D03*
X823497D02*
D03*
D33*
X347500Y232500D02*
D03*
X386500D02*
D03*
X473000Y598000D02*
D03*
X386500Y242500D02*
D03*
X347500D02*
D03*
X473000Y588000D02*
D03*
D34*
X268500Y325000D02*
D03*
X485000Y601500D02*
D03*
X731000Y441250D02*
D03*
X268500Y311500D02*
D03*
X731000Y427750D02*
D03*
X485000Y588000D02*
D03*
D35*
X179600Y473600D02*
D03*
X150400Y499000D02*
D03*
X639600Y111000D02*
D03*
X610400Y136400D02*
D03*
Y85600D02*
D03*
X179600Y524400D02*
D03*
D36*
X248000Y561500D02*
D03*
Y523500D02*
D03*
Y484500D02*
D03*
X282000Y296500D02*
D03*
Y311500D02*
D03*
X670000Y551000D02*
D03*
Y536000D02*
D03*
X296500Y311500D02*
D03*
Y296500D02*
D03*
Y323000D02*
D03*
Y338000D02*
D03*
X500000Y586500D02*
D03*
X248000Y499500D02*
D03*
X500000Y601500D02*
D03*
X248000Y576500D02*
D03*
Y538500D02*
D03*
D37*
X320500Y456000D02*
D03*
X516000Y587500D02*
D03*
X685000Y578000D02*
D03*
X320500Y442000D02*
D03*
X685000Y564000D02*
D03*
X516000Y601500D02*
D03*
D38*
X264000Y519500D02*
D03*
Y480500D02*
D03*
Y557500D02*
D03*
X284000Y490000D02*
D03*
Y567000D02*
D03*
Y529000D02*
D03*
X264000Y576500D02*
D03*
Y538500D02*
D03*
Y499500D02*
D03*
D39*
X601000Y187000D02*
D03*
X649000Y60000D02*
D03*
Y162000D02*
D03*
X601000Y35000D02*
D03*
X189000Y423000D02*
D03*
X141000Y448000D02*
D03*
Y550000D02*
D03*
X189000Y575000D02*
D03*
D40*
X381500Y122500D02*
D03*
X349500D02*
D03*
D41*
X789394Y535040D02*
D03*
X834606D02*
D03*
D42*
X332500Y437000D02*
D03*
X342500D02*
D03*
X257500Y418000D02*
D03*
X267500D02*
D03*
D43*
X161500Y318000D02*
D03*
X273000Y130500D02*
D03*
X161500Y286000D02*
D03*
X273000Y98500D02*
D03*
D44*
X129000Y42000D02*
D03*
X163000D02*
D03*
D45*
X88000Y98471D02*
D03*
Y181529D02*
D03*
X204000D02*
D03*
Y98471D02*
D03*
D46*
X302000Y130500D02*
D03*
Y95500D02*
D03*
D47*
X812000Y597524D02*
D03*
D48*
X359999Y245000D02*
D03*
X373999D02*
D03*
X240499Y292999D02*
D03*
X254499D02*
D03*
D49*
X297000Y35500D02*
D03*
X282000D02*
D03*
X234500Y576500D02*
D03*
X219500D02*
D03*
X234000Y499500D02*
D03*
X219000D02*
D03*
X218500Y538500D02*
D03*
X233500D02*
D03*
D50*
X282000Y49728D02*
D03*
Y76272D02*
D03*
D51*
X440000Y588000D02*
D03*
X460000D02*
D03*
D52*
X242227Y263773D02*
D03*
X251773Y254227D02*
D03*
M02*
